<svg width="604" height="398" viewBox="0 0 604 398" fill="none" xmlns="http://www.w3.org/2000/svg">
<rect width="604" height="398" fill="#1E1E1E"/>
<g clip-path="url(#clip0_0_1)">
<path d="M0 0H604V331C604 368.003 574.003 398 537 398H67C29.9969 398 0 368.003 0 331V0Z" fill="white" fill-opacity="0.01"/>
<path d="M0.5 0.5H603.5V331C603.5 367.727 573.727 397.5 537 397.5H67C30.2731 397.5 0.5 367.727 0.5 331V0.5Z" stroke="white" stroke-opacity="0.1"/>
<path d="M82.9998 120.664C104.998 120.664 122.832 102.83 122.832 80.8318C122.832 58.8333 104.998 41 82.9998 41C61.0013 41 43.168 58.8333 43.168 80.8318C43.168 102.83 61.0013 120.664 82.9998 120.664Z" fill="#3B82F6"/>
<path d="M82.9994 87.449C82.7595 87.449 82.5347 87.4126 82.3248 87.34C82.1149 87.2674 81.92 87.1426 81.74 86.9657L75.2632 80.6395C74.9034 80.288 74.7307 79.878 74.7451 79.4094C74.7594 78.9408 74.9322 78.5308 75.2632 78.1793C75.623 77.8278 76.0506 77.6451 76.546 77.631C77.0413 77.617 77.4683 77.7851 77.827 78.1354L81.2003 81.4303V68.8657C81.2003 68.3678 81.373 67.9507 81.7185 67.6145C82.0639 67.2783 82.4909 67.1096 82.9994 67.1084C83.508 67.1072 83.9356 67.2759 84.2822 67.6145C84.6288 67.9531 84.801 68.3701 84.7986 68.8657V81.4303L88.1719 78.1354C88.5317 77.7839 88.9593 77.6152 89.4547 77.6293C89.95 77.6433 90.377 77.8267 90.7357 78.1793C91.0655 78.5308 91.2382 78.9408 91.2538 79.4094C91.2694 79.878 91.0967 80.288 90.7357 80.6395L84.2588 86.9657C84.0789 87.1414 83.884 87.2662 83.6741 87.34C83.4642 87.4138 83.2393 87.4501 82.9994 87.449ZM72.2047 95.2249C71.2152 95.2249 70.3684 94.8811 69.6643 94.1934C68.9603 93.5057 68.6076 92.6781 68.6064 91.7104V88.1958C68.6064 87.6979 68.7792 87.2809 69.1246 86.9446C69.47 86.6084 69.897 86.4397 70.4056 86.4385C70.9141 86.4374 71.3417 86.6061 71.6883 86.9446C72.035 87.2832 72.2071 87.7003 72.2047 88.1958V91.7104H93.7942V88.1958C93.7942 87.6979 93.9669 87.2809 94.3123 86.9446C94.6578 86.6084 95.0847 86.4397 95.5933 86.4385C96.1018 86.4374 96.5294 86.6061 96.8761 86.9446C97.2227 87.2832 97.3948 87.7003 97.3924 88.1958V91.7104C97.3924 92.6769 97.0404 93.5046 96.3363 94.1934C95.6323 94.8823 94.7849 95.2261 93.7942 95.2249H72.2047Z" fill="white"/>
<path d="M542 100H157C151.477 100 147 104.477 147 110C147 115.523 151.477 120 157 120H542C547.523 120 552 115.523 552 110C552 104.477 547.523 100 542 100Z" fill="#2C2C2C"/>
<path d="M82.8318 234.664C104.83 234.664 122.664 216.83 122.664 194.832C122.664 172.833 104.83 155 82.8318 155C60.8333 155 43 172.833 43 194.832C43 216.83 60.8333 234.664 82.8318 234.664Z" fill="#3B82F6"/>
<path d="M82.8315 201.449C82.5916 201.449 82.3667 201.413 82.1568 201.34C81.9469 201.267 81.752 201.143 81.5721 200.966L75.0952 194.639C74.7354 194.288 74.5627 193.878 74.5771 193.409C74.5915 192.941 74.7642 192.531 75.0952 192.179C75.4551 191.828 75.8826 191.645 76.378 191.631C76.8734 191.617 77.3004 191.785 77.659 192.135L81.0323 195.43V182.866C81.0323 182.368 81.2051 181.951 81.5505 181.615C81.8959 181.278 82.3229 181.11 82.8315 181.108C83.34 181.107 83.7676 181.276 84.1142 181.615C84.4609 181.953 84.633 182.37 84.6306 182.866V195.43L88.0039 192.135C88.3638 191.784 88.7914 191.615 89.2867 191.629C89.7821 191.643 90.2091 191.827 90.5677 192.179C90.8975 192.531 91.0702 192.941 91.0858 193.409C91.1014 193.878 90.9287 194.288 90.5677 194.639L84.0908 200.966C83.9109 201.141 83.716 201.266 83.5061 201.34C83.2962 201.414 83.0713 201.45 82.8315 201.449ZM72.0367 209.225C71.0472 209.225 70.2004 208.881 69.4964 208.193C68.7923 207.506 68.4397 206.678 68.4385 205.71V202.196C68.4385 201.698 68.6112 201.281 68.9566 200.945C69.3021 200.608 69.729 200.44 70.2376 200.439C70.7462 200.437 71.1737 200.606 71.5204 200.945C71.867 201.283 72.0391 201.7 72.0367 202.196V205.71H93.6262V202.196C93.6262 201.698 93.7989 201.281 94.1444 200.945C94.4898 200.608 94.9168 200.44 95.4253 200.439C95.9339 200.437 96.3615 200.606 96.7081 200.945C97.0547 201.283 97.2268 201.7 97.2244 202.196V205.71C97.2244 206.677 96.8724 207.505 96.1684 208.193C95.4643 208.882 94.6169 209.226 93.6262 209.225H72.0367Z" fill="white"/>
<path d="M541.832 214H156.832C151.309 214 146.832 218.477 146.832 224C146.832 229.523 151.309 234 156.832 234H541.832C547.355 234 551.832 229.523 551.832 224C551.832 218.477 547.355 214 541.832 214Z" fill="#2C2C2C"/>
<path d="M82.8318 348.664C104.83 348.664 122.664 330.83 122.664 308.832C122.664 286.834 104.83 269 82.8318 269C60.8333 269 43 286.834 43 308.832C43 330.83 60.8333 348.664 82.8318 348.664Z" fill="#3B82F6"/>
<path d="M82.8315 315.449C82.5916 315.449 82.3667 315.413 82.1568 315.34C81.9469 315.267 81.752 315.143 81.5721 314.966L75.0952 308.639C74.7354 308.288 74.5627 307.878 74.5771 307.409C74.5915 306.941 74.7642 306.531 75.0952 306.179C75.4551 305.828 75.8826 305.645 76.378 305.631C76.8734 305.617 77.3004 305.785 77.659 306.135L81.0323 309.43V296.866C81.0323 296.368 81.2051 295.951 81.5505 295.615C81.8959 295.278 82.3229 295.11 82.8315 295.108C83.34 295.107 83.7676 295.276 84.1142 295.615C84.4609 295.953 84.633 296.37 84.6306 296.866V309.43L88.0039 306.135C88.3638 305.784 88.7914 305.615 89.2867 305.629C89.7821 305.643 90.2091 305.827 90.5677 306.179C90.8975 306.531 91.0702 306.941 91.0858 307.409C91.1014 307.878 90.9287 308.288 90.5677 308.639L84.0908 314.966C83.9109 315.141 83.716 315.266 83.5061 315.34C83.2962 315.414 83.0713 315.45 82.8315 315.449ZM72.0367 323.225C71.0472 323.225 70.2004 322.881 69.4964 322.193C68.7923 321.506 68.4397 320.678 68.4385 319.71V316.196C68.4385 315.698 68.6112 315.281 68.9566 314.945C69.3021 314.608 69.729 314.44 70.2376 314.439C70.7462 314.437 71.1737 314.606 71.5204 314.945C71.867 315.283 72.0391 315.7 72.0367 316.196V319.71H93.6262V316.196C93.6262 315.698 93.7989 315.281 94.1444 314.945C94.4898 314.608 94.9168 314.44 95.4253 314.439C95.9339 314.437 96.3615 314.606 96.7081 314.945C97.0547 315.283 97.2268 315.7 97.2244 316.196V319.71C97.2244 320.677 96.8724 321.505 96.1684 322.193C95.4643 322.882 94.6169 323.226 93.6262 323.225H72.0367Z" fill="white"/>
<path d="M541.832 328H156.832C151.309 328 146.832 332.477 146.832 338C146.832 343.523 151.309 348 156.832 348H541.832C547.355 348 551.832 343.523 551.832 338C551.832 332.477 547.355 328 541.832 328Z" fill="#2C2C2C"/>
<path d="M156.952 54.4545H159.153V64.0213C159.153 65.0393 158.914 65.9413 158.436 66.7273C157.958 67.5085 157.286 68.1241 156.419 68.5739C155.553 69.0189 154.537 69.2415 153.372 69.2415C152.212 69.2415 151.199 69.0189 150.332 68.5739C149.466 68.1241 148.794 67.5085 148.315 66.7273C147.837 65.9413 147.598 65.0393 147.598 64.0213V54.4545H149.793V63.8438C149.793 64.5019 149.937 65.0866 150.226 65.598C150.519 66.1094 150.934 66.5118 151.469 66.8054C152.004 67.0942 152.638 67.2386 153.372 67.2386C154.111 67.2386 154.748 67.0942 155.283 66.8054C155.822 66.5118 156.234 66.1094 156.518 65.598C156.807 65.0866 156.952 64.5019 156.952 63.8438V54.4545ZM162.174 73.0909V58.0909H164.248V59.8594H164.425C164.548 59.6321 164.726 59.3693 164.958 59.071C165.19 58.7727 165.512 58.5123 165.924 58.2898C166.336 58.0625 166.88 57.9489 167.557 57.9489C168.438 57.9489 169.224 58.1714 169.915 58.6165C170.606 59.0616 171.149 59.7031 171.542 60.5412C171.939 61.3793 172.138 62.3878 172.138 63.5668C172.138 64.7457 171.942 65.7566 171.549 66.5994C171.156 67.4375 170.616 68.0838 169.929 68.5384C169.243 68.9882 168.459 69.2131 167.578 69.2131C166.916 69.2131 166.373 69.1018 165.952 68.8793C165.535 68.6567 165.209 68.3963 164.972 68.098C164.735 67.7997 164.553 67.5346 164.425 67.3026H164.297V73.0909H162.174ZM164.255 63.5455C164.255 64.3125 164.366 64.9848 164.588 65.5625C164.811 66.1402 165.133 66.5923 165.554 66.919C165.976 67.241 166.492 67.402 167.103 67.402C167.737 67.402 168.267 67.2339 168.694 66.8977C169.12 66.5568 169.442 66.0952 169.659 65.5128C169.882 64.9304 169.993 64.2746 169.993 63.5455C169.993 62.8258 169.884 62.1795 169.667 61.6065C169.453 61.0336 169.132 60.5814 168.701 60.25C168.275 59.9186 167.742 59.7528 167.103 59.7528C166.487 59.7528 165.966 59.9115 165.54 60.2287C165.119 60.5459 164.799 60.9886 164.581 61.5568C164.364 62.125 164.255 62.7879 164.255 63.5455ZM176.641 54.4545V69H174.517V54.4545H176.641ZM184.093 69.2202C183.07 69.2202 182.178 68.9858 181.415 68.517C180.653 68.0483 180.061 67.3925 179.64 66.5497C179.219 65.7069 179.008 64.7221 179.008 63.5952C179.008 62.4635 179.219 61.474 179.64 60.6264C180.061 59.7789 180.653 59.1207 181.415 58.652C182.178 58.1832 183.07 57.9489 184.093 57.9489C185.116 57.9489 186.008 58.1832 186.771 58.652C187.533 59.1207 188.125 59.7789 188.546 60.6264C188.968 61.474 189.178 62.4635 189.178 63.5952C189.178 64.7221 188.968 65.7069 188.546 66.5497C188.125 67.3925 187.533 68.0483 186.771 68.517C186.008 68.9858 185.116 69.2202 184.093 69.2202ZM184.1 67.4375C184.763 67.4375 185.312 67.2623 185.748 66.9119C186.183 66.5616 186.505 66.0952 186.714 65.5128C186.927 64.9304 187.033 64.2888 187.033 63.5881C187.033 62.892 186.927 62.2528 186.714 61.6705C186.505 61.0833 186.183 60.6122 185.748 60.2571C185.312 59.902 184.763 59.7244 184.1 59.7244C183.433 59.7244 182.879 59.902 182.438 60.2571C182.003 60.6122 181.678 61.0833 181.465 61.6705C181.257 62.2528 181.153 62.892 181.153 63.5881C181.153 64.2888 181.257 64.9304 181.465 65.5128C181.678 66.0952 182.003 66.5616 182.438 66.9119C182.879 67.2623 183.433 67.4375 184.1 67.4375ZM194.723 69.2415C194.032 69.2415 193.407 69.1136 192.848 68.858C192.29 68.5975 191.847 68.2211 191.52 67.7287C191.198 67.2363 191.037 66.6326 191.037 65.9176C191.037 65.3021 191.156 64.7955 191.392 64.3977C191.629 64 191.949 63.6851 192.351 63.4531C192.754 63.2211 193.203 63.0459 193.701 62.9276C194.198 62.8092 194.704 62.7192 195.221 62.6577C195.874 62.5819 196.404 62.5204 196.811 62.473C197.219 62.4209 197.515 62.3381 197.699 62.2244C197.884 62.1108 197.976 61.9261 197.976 61.6705V61.6207C197.976 61.0005 197.801 60.5199 197.451 60.179C197.105 59.8381 196.589 59.6676 195.902 59.6676C195.187 59.6676 194.624 59.8262 194.212 60.1435C193.805 60.456 193.523 60.804 193.367 61.1875L191.371 60.733C191.608 60.0701 191.953 59.535 192.408 59.1278C192.867 58.7159 193.395 58.4176 193.992 58.233C194.588 58.0436 195.216 57.9489 195.874 57.9489C196.31 57.9489 196.771 58.0009 197.259 58.1051C197.751 58.2045 198.211 58.3892 198.637 58.6591C199.068 58.929 199.42 59.3149 199.695 59.8168C199.97 60.3139 200.107 60.9602 200.107 61.7557V69H198.033V67.5085H197.948C197.81 67.7831 197.605 68.053 197.33 68.3182C197.055 68.5833 196.703 68.8035 196.272 68.9787C195.841 69.1539 195.325 69.2415 194.723 69.2415ZM195.185 67.5369C195.772 67.5369 196.274 67.4209 196.691 67.1889C197.112 66.9569 197.432 66.6539 197.65 66.2798C197.872 65.901 197.983 65.4962 197.983 65.0653V63.6591C197.908 63.7348 197.761 63.8059 197.543 63.8722C197.33 63.9337 197.086 63.9882 196.811 64.0355C196.537 64.0781 196.269 64.1184 196.009 64.1562C195.748 64.1894 195.531 64.2178 195.355 64.2415C194.944 64.2936 194.567 64.3812 194.226 64.5043C193.89 64.6274 193.62 64.8049 193.417 65.0369C193.218 65.2642 193.118 65.5672 193.118 65.946C193.118 66.4716 193.312 66.8693 193.701 67.1392C194.089 67.4044 194.584 67.5369 195.185 67.5369ZM207.019 69.2131C206.138 69.2131 205.353 68.9882 204.661 68.5384C203.975 68.0838 203.435 67.4375 203.042 66.5994C202.654 65.7566 202.46 64.7457 202.46 63.5668C202.46 62.3878 202.656 61.3793 203.049 60.5412C203.447 59.7031 203.991 59.0616 204.683 58.6165C205.374 58.1714 206.157 57.9489 207.033 57.9489C207.71 57.9489 208.255 58.0625 208.667 58.2898C209.084 58.5123 209.406 58.7727 209.633 59.071C209.865 59.3693 210.045 59.6321 210.173 59.8594H210.3V54.4545H212.424V69H210.35V67.3026H210.173C210.045 67.5346 209.86 67.7997 209.619 68.098C209.382 68.3963 209.055 68.6567 208.638 68.8793C208.222 69.1018 207.682 69.2131 207.019 69.2131ZM207.488 67.402C208.099 67.402 208.615 67.241 209.036 66.919C209.462 66.5923 209.784 66.1402 210.002 65.5625C210.225 64.9848 210.336 64.3125 210.336 63.5455C210.336 62.7879 210.227 62.125 210.009 61.5568C209.791 60.9886 209.472 60.5459 209.05 60.2287C208.629 59.9115 208.108 59.7528 207.488 59.7528C206.849 59.7528 206.316 59.9186 205.89 60.25C205.464 60.5814 205.142 61.0336 204.924 61.6065C204.711 62.1795 204.604 62.8258 204.604 63.5455C204.604 64.2746 204.713 64.9304 204.931 65.5128C205.149 66.0952 205.471 66.5568 205.897 66.8977C206.328 67.2339 206.858 67.402 207.488 67.402ZM220.918 69V54.4545H226.103C227.235 54.4545 228.172 54.6605 228.915 55.0724C229.659 55.4844 230.215 56.0478 230.585 56.7628C230.954 57.473 231.138 58.2732 231.138 59.1634C231.138 60.0582 230.951 60.8632 230.577 61.5781C230.208 62.2884 229.649 62.8518 228.901 63.2685C228.158 63.6804 227.223 63.8864 226.096 63.8864H222.531V62.0256H225.897C226.612 62.0256 227.192 61.9025 227.637 61.6562C228.082 61.4053 228.409 61.0644 228.617 60.6335C228.826 60.2027 228.93 59.7126 228.93 59.1634C228.93 58.6141 228.826 58.1264 228.617 57.7003C228.409 57.2741 228.08 56.9403 227.63 56.6989C227.185 56.4574 226.598 56.3366 225.869 56.3366H223.113V69H220.918ZM238.42 69H233.711V54.4545H238.569C239.994 54.4545 241.218 54.7457 242.241 55.3281C243.264 55.9058 244.047 56.7367 244.592 57.821C245.141 58.9006 245.416 60.1955 245.416 61.706C245.416 63.2211 245.139 64.5232 244.585 65.6122C244.036 66.7012 243.24 67.5393 242.199 68.1264C241.157 68.7088 239.897 69 238.42 69ZM235.906 67.0824H238.299C239.407 67.0824 240.328 66.8741 241.062 66.4574C241.796 66.036 242.345 65.4276 242.71 64.6321C243.074 63.8319 243.257 62.8565 243.257 61.706C243.257 60.5649 243.074 59.5966 242.71 58.8011C242.35 58.0057 241.813 57.402 241.098 56.9901C240.383 56.5781 239.495 56.3722 238.434 56.3722H235.906V67.0824ZM248.145 69V54.4545H257.165V56.3438H250.339V60.7756H256.518V62.6577H250.339V69H248.145ZM267.868 60.7543L265.943 61.0952C265.863 60.849 265.735 60.6146 265.56 60.392C265.389 60.1695 265.157 59.9872 264.864 59.8452C264.57 59.7031 264.203 59.6321 263.763 59.6321C263.161 59.6321 262.66 59.767 262.257 60.0369C261.855 60.3021 261.653 60.6454 261.653 61.0668C261.653 61.4313 261.788 61.7249 262.058 61.9474C262.328 62.17 262.764 62.3523 263.365 62.4943L265.098 62.892C266.102 63.1241 266.85 63.4815 267.342 63.9645C267.835 64.4474 268.081 65.0748 268.081 65.8466C268.081 66.5 267.892 67.0824 267.513 67.5938C267.139 68.1004 266.616 68.4981 265.943 68.7869C265.276 69.0758 264.501 69.2202 263.621 69.2202C262.399 69.2202 261.402 68.9598 260.631 68.4389C259.859 67.9134 259.385 67.1676 259.21 66.2017L261.263 65.8892C261.391 66.4242 261.653 66.8291 262.051 67.1037C262.449 67.3736 262.967 67.5085 263.607 67.5085C264.303 67.5085 264.859 67.3641 265.276 67.0753C265.692 66.7817 265.901 66.4242 265.901 66.0028C265.901 65.6619 265.773 65.3755 265.517 65.1435C265.266 64.9115 264.88 64.7363 264.359 64.6179L262.513 64.2131C261.495 63.9811 260.742 63.6117 260.254 63.1051C259.771 62.5985 259.53 61.9569 259.53 61.1804C259.53 60.5365 259.71 59.973 260.07 59.4901C260.429 59.0071 260.927 58.6307 261.561 58.3608C262.196 58.0862 262.922 57.9489 263.741 57.9489C264.92 57.9489 265.848 58.2045 266.526 58.7159C267.203 59.2225 267.65 59.902 267.868 60.7543ZM273.179 67.0114L273.072 67.7855C273.001 68.3537 272.88 68.9455 272.71 69.5611C272.544 70.1813 272.371 70.7566 272.191 71.2869C272.016 71.8172 271.872 72.2386 271.758 72.5511H270.252C270.314 72.2576 270.399 71.8598 270.508 71.358C270.617 70.8608 270.724 70.3045 270.828 69.6889C270.932 69.0734 271.01 68.446 271.062 67.8068L271.133 67.0114H273.179ZM286.115 69H281.407V54.4545H286.265C287.69 54.4545 288.914 54.7457 289.936 55.3281C290.959 55.9058 291.743 56.7367 292.287 57.821C292.837 58.9006 293.111 60.1955 293.111 61.706C293.111 63.2211 292.834 64.5232 292.28 65.6122C291.731 66.7012 290.935 67.5393 289.894 68.1264C288.852 68.7088 287.593 69 286.115 69ZM283.601 67.0824H285.995C287.103 67.0824 288.024 66.8741 288.757 66.4574C289.491 66.036 290.041 65.4276 290.405 64.6321C290.77 63.8319 290.952 62.8565 290.952 61.706C290.952 60.5649 290.77 59.5966 290.405 58.8011C290.045 58.0057 289.508 57.402 288.793 56.9901C288.078 56.5781 287.19 56.3722 286.13 56.3722H283.601V67.0824ZM300.265 69.2202C299.242 69.2202 298.35 68.9858 297.587 68.517C296.825 68.0483 296.233 67.3925 295.812 66.5497C295.39 65.7069 295.18 64.7221 295.18 63.5952C295.18 62.4635 295.39 61.474 295.812 60.6264C296.233 59.7789 296.825 59.1207 297.587 58.652C298.35 58.1832 299.242 57.9489 300.265 57.9489C301.288 57.9489 302.18 58.1832 302.942 58.652C303.705 59.1207 304.297 59.7789 304.718 60.6264C305.139 61.474 305.35 62.4635 305.35 63.5952C305.35 64.7221 305.139 65.7069 304.718 66.5497C304.297 67.3925 303.705 68.0483 302.942 68.517C302.18 68.9858 301.288 69.2202 300.265 69.2202ZM300.272 67.4375C300.935 67.4375 301.484 67.2623 301.92 66.9119C302.355 66.5616 302.677 66.0952 302.886 65.5128C303.099 64.9304 303.205 64.2888 303.205 63.5881C303.205 62.892 303.099 62.2528 302.886 61.6705C302.677 61.0833 302.355 60.6122 301.92 60.2571C301.484 59.902 300.935 59.7244 300.272 59.7244C299.604 59.7244 299.05 59.902 298.61 60.2571C298.174 60.6122 297.85 61.0833 297.637 61.6705C297.429 62.2528 297.325 62.892 297.325 63.5881C297.325 64.2888 297.429 64.9304 297.637 65.5128C297.85 66.0952 298.174 66.5616 298.61 66.9119C299.05 67.2623 299.604 67.4375 300.272 67.4375ZM312.316 69.2202C311.26 69.2202 310.351 68.9811 309.588 68.5028C308.831 68.0199 308.248 67.3546 307.841 66.5071C307.434 65.6596 307.23 64.6889 307.23 63.5952C307.23 62.4872 307.439 61.5095 307.855 60.6619C308.272 59.8097 308.859 59.1444 309.617 58.6662C310.374 58.188 311.267 57.9489 312.294 57.9489C313.123 57.9489 313.862 58.1027 314.51 58.4105C315.159 58.7135 315.682 59.1397 316.08 59.6889C316.482 60.2382 316.721 60.8797 316.797 61.6136H314.73C314.617 61.1023 314.356 60.6619 313.949 60.2926C313.547 59.9233 313.007 59.7386 312.33 59.7386C311.738 59.7386 311.22 59.8949 310.775 60.2074C310.334 60.5152 309.991 60.9555 309.745 61.5284C309.498 62.0966 309.375 62.7689 309.375 63.5455C309.375 64.3409 309.496 65.0275 309.738 65.6051C309.979 66.1828 310.32 66.6302 310.76 66.9474C311.205 67.2647 311.729 67.4233 312.33 67.4233C312.732 67.4233 313.097 67.3499 313.424 67.2031C313.755 67.0516 314.032 66.8362 314.255 66.5568C314.482 66.2775 314.641 65.9413 314.73 65.5483H316.797C316.721 66.2538 316.492 66.8835 316.108 67.4375C315.725 67.9915 315.211 68.4271 314.567 68.7443C313.928 69.0616 313.177 69.2202 312.316 69.2202ZM327.243 60.7543L325.318 61.0952C325.238 60.849 325.11 60.6146 324.935 60.392C324.764 60.1695 324.532 59.9872 324.239 59.8452C323.945 59.7031 323.578 59.6321 323.138 59.6321C322.536 59.6321 322.035 59.767 321.632 60.0369C321.23 60.3021 321.028 60.6454 321.028 61.0668C321.028 61.4313 321.163 61.7249 321.433 61.9474C321.703 62.17 322.139 62.3523 322.74 62.4943L324.473 62.892C325.477 63.1241 326.225 63.4815 326.717 63.9645C327.21 64.4474 327.456 65.0748 327.456 65.8466C327.456 66.5 327.267 67.0824 326.888 67.5938C326.514 68.1004 325.991 68.4981 325.318 68.7869C324.651 69.0758 323.876 69.2202 322.996 69.2202C321.774 69.2202 320.777 68.9598 320.006 68.4389C319.234 67.9134 318.76 67.1676 318.585 66.2017L320.638 65.8892C320.766 66.4242 321.028 66.8291 321.426 67.1037C321.824 67.3736 322.342 67.5085 322.982 67.5085C323.678 67.5085 324.234 67.3641 324.651 67.0753C325.067 66.7817 325.276 66.4242 325.276 66.0028C325.276 65.6619 325.148 65.3755 324.892 65.1435C324.641 64.9115 324.255 64.7363 323.734 64.6179L321.888 64.2131C320.87 63.9811 320.117 63.6117 319.629 63.1051C319.146 62.5985 318.905 61.9569 318.905 61.1804C318.905 60.5365 319.085 59.973 319.445 59.4901C319.804 59.0071 320.302 58.6307 320.936 58.3608C321.571 58.0862 322.297 57.9489 323.116 57.9489C324.295 57.9489 325.223 58.2045 325.901 58.7159C326.578 59.2225 327.025 59.902 327.243 60.7543ZM338.259 69.2415C337.567 69.2415 336.942 69.1136 336.384 68.858C335.825 68.5975 335.382 68.2211 335.055 67.7287C334.733 67.2363 334.572 66.6326 334.572 65.9176C334.572 65.3021 334.691 64.7955 334.928 64.3977C335.164 64 335.484 63.6851 335.886 63.4531C336.289 63.2211 336.739 63.0459 337.236 62.9276C337.733 62.8092 338.24 62.7192 338.756 62.6577C339.409 62.5819 339.939 62.5204 340.347 62.473C340.754 62.4209 341.05 62.3381 341.234 62.2244C341.419 62.1108 341.511 61.9261 341.511 61.6705V61.6207C341.511 61.0005 341.336 60.5199 340.986 60.179C340.64 59.8381 340.124 59.6676 339.438 59.6676C338.723 59.6676 338.159 59.8262 337.747 60.1435C337.34 60.456 337.058 60.804 336.902 61.1875L334.906 60.733C335.143 60.0701 335.489 59.535 335.943 59.1278C336.402 58.7159 336.93 58.4176 337.527 58.233C338.124 58.0436 338.751 57.9489 339.409 57.9489C339.845 57.9489 340.306 58.0009 340.794 58.1051C341.286 58.2045 341.746 58.3892 342.172 58.6591C342.603 58.929 342.955 59.3149 343.23 59.8168C343.505 60.3139 343.642 60.9602 343.642 61.7557V69H341.568V67.5085H341.483C341.346 67.7831 341.14 68.053 340.865 68.3182C340.59 68.5833 340.238 68.8035 339.807 68.9787C339.376 69.1539 338.86 69.2415 338.259 69.2415ZM338.72 67.5369C339.307 67.5369 339.809 67.4209 340.226 67.1889C340.647 66.9569 340.967 66.6539 341.185 66.2798C341.407 65.901 341.518 65.4962 341.518 65.0653V63.6591C341.443 63.7348 341.296 63.8059 341.078 63.8722C340.865 63.9337 340.621 63.9882 340.347 64.0355C340.072 64.0781 339.804 64.1184 339.544 64.1562C339.284 64.1894 339.066 64.2178 338.891 64.2415C338.479 64.2936 338.102 64.3812 337.761 64.5043C337.425 64.6274 337.155 64.8049 336.952 65.0369C336.753 65.2642 336.653 65.5672 336.653 65.946C336.653 66.4716 336.848 66.8693 337.236 67.1392C337.624 67.4044 338.119 67.5369 338.72 67.5369ZM348.594 62.5227V69H346.471V58.0909H348.509V59.8665H348.644C348.895 59.2888 349.288 58.8248 349.823 58.4744C350.363 58.1241 351.042 57.9489 351.861 57.9489C352.605 57.9489 353.256 58.1051 353.814 58.4176C354.373 58.7254 354.806 59.1847 355.114 59.7955C355.422 60.4062 355.576 61.1615 355.576 62.0611V69H353.452V62.3168C353.452 61.526 353.246 60.9081 352.834 60.4631C352.422 60.0133 351.856 59.7884 351.137 59.7884C350.644 59.7884 350.206 59.8949 349.823 60.108C349.444 60.321 349.143 60.6335 348.921 61.0455C348.703 61.4527 348.594 61.9451 348.594 62.5227ZM362.507 69.2131C361.627 69.2131 360.841 68.9882 360.15 68.5384C359.463 68.0838 358.923 67.4375 358.53 66.5994C358.142 65.7566 357.948 64.7457 357.948 63.5668C357.948 62.3878 358.144 61.3793 358.537 60.5412C358.935 59.7031 359.48 59.0616 360.171 58.6165C360.862 58.1714 361.646 57.9489 362.522 57.9489C363.199 57.9489 363.743 58.0625 364.155 58.2898C364.572 58.5123 364.894 58.7727 365.121 59.071C365.353 59.3693 365.533 59.6321 365.661 59.8594H365.789V54.4545H367.912V69H365.838V67.3026H365.661C365.533 67.5346 365.348 67.7997 365.107 68.098C364.87 68.3963 364.543 68.6567 364.127 68.8793C363.71 69.1018 363.17 69.2131 362.507 69.2131ZM362.976 67.402C363.587 67.402 364.103 67.241 364.525 66.919C364.951 66.5923 365.273 66.1402 365.49 65.5625C365.713 64.9848 365.824 64.3125 365.824 63.5455C365.824 62.7879 365.715 62.125 365.498 61.5568C365.28 60.9886 364.96 60.5459 364.539 60.2287C364.117 59.9115 363.596 59.7528 362.976 59.7528C362.337 59.7528 361.804 59.9186 361.378 60.25C360.952 60.5814 360.63 61.0336 360.412 61.6065C360.199 62.1795 360.093 62.8258 360.093 63.5455C360.093 64.2746 360.202 64.9304 360.419 65.5128C360.637 66.0952 360.959 66.5568 361.385 66.8977C361.816 67.2339 362.346 67.402 362.976 67.402ZM379.255 69L375.221 54.4545H377.529L380.363 65.7188H380.498L383.445 54.4545H385.732L388.679 65.7259H388.814L391.641 54.4545H393.956L389.915 69H387.706L384.645 58.1051H384.532L381.471 69H379.255ZM395.787 69V58.0909H397.911V69H395.787ZM396.859 56.4077C396.49 56.4077 396.173 56.2846 395.908 56.0384C395.647 55.7874 395.517 55.4891 395.517 55.1435C395.517 54.7931 395.647 54.4948 395.908 54.2486C396.173 53.9976 396.49 53.8722 396.859 53.8722C397.229 53.8722 397.544 53.9976 397.804 54.2486C398.069 54.4948 398.202 54.7931 398.202 55.1435C398.202 55.4891 398.069 55.7874 397.804 56.0384C397.544 56.2846 397.229 56.4077 396.859 56.4077ZM402.721 65.2997L402.706 62.7074H403.076L407.422 58.0909H409.965L405.007 63.3466H404.674L402.721 65.2997ZM400.767 69V54.4545H402.891V69H400.767ZM407.657 69L403.75 63.8153L405.213 62.331L410.263 69H407.657ZM411.9 69V58.0909H414.024V69H411.9ZM412.973 56.4077C412.603 56.4077 412.286 56.2846 412.021 56.0384C411.761 55.7874 411.63 55.4891 411.63 55.1435C411.63 54.7931 411.761 54.4948 412.021 54.2486C412.286 53.9976 412.603 53.8722 412.973 53.8722C413.342 53.8722 413.657 53.9976 413.917 54.2486C414.182 54.4948 414.315 54.7931 414.315 55.1435C414.315 55.4891 414.182 55.7874 413.917 56.0384C413.657 56.2846 413.342 56.4077 412.973 56.4077ZM422.42 53.7727L417.733 71.1875H415.837L420.524 53.7727H422.42ZM436.135 54.4545V69H434.118L426.724 58.3324H426.589V69H424.395V54.4545H426.426L433.827 65.1364H433.962V54.4545H436.135ZM443.761 69.2202C442.738 69.2202 441.846 68.9858 441.083 68.517C440.321 68.0483 439.729 67.3925 439.308 66.5497C438.886 65.7069 438.676 64.7221 438.676 63.5952C438.676 62.4635 438.886 61.474 439.308 60.6264C439.729 59.7789 440.321 59.1207 441.083 58.652C441.846 58.1832 442.738 57.9489 443.761 57.9489C444.784 57.9489 445.676 58.1832 446.439 58.652C447.201 59.1207 447.793 59.7789 448.214 60.6264C448.636 61.474 448.846 62.4635 448.846 63.5952C448.846 64.7221 448.636 65.7069 448.214 66.5497C447.793 67.3925 447.201 68.0483 446.439 68.517C445.676 68.9858 444.784 69.2202 443.761 69.2202ZM443.768 67.4375C444.431 67.4375 444.98 67.2623 445.416 66.9119C445.851 66.5616 446.173 66.0952 446.382 65.5128C446.595 64.9304 446.701 64.2888 446.701 63.5881C446.701 62.892 446.595 62.2528 446.382 61.6705C446.173 61.0833 445.851 60.6122 445.416 60.2571C444.98 59.902 444.431 59.7244 443.768 59.7244C443.1 59.7244 442.547 59.902 442.106 60.2571C441.671 60.6122 441.346 61.0833 441.133 61.6705C440.925 62.2528 440.821 62.892 440.821 63.5881C440.821 64.2888 440.925 64.9304 441.133 65.5128C441.346 66.0952 441.671 66.5616 442.106 66.9119C442.547 67.2623 443.1 67.4375 443.768 67.4375ZM456.309 58.0909V59.7955H450.35V58.0909H456.309ZM451.948 55.4773H454.072V65.7969C454.072 66.2088 454.133 66.5189 454.256 66.7273C454.379 66.9309 454.538 67.0705 454.732 67.1463C454.931 67.2173 455.147 67.2528 455.379 67.2528C455.549 67.2528 455.698 67.241 455.826 67.2173C455.954 67.1937 456.053 67.1747 456.124 67.1605L456.508 68.9148C456.385 68.9621 456.21 69.0095 455.982 69.0568C455.755 69.1089 455.471 69.1373 455.13 69.142C454.571 69.1515 454.05 69.0521 453.567 68.8438C453.085 68.6354 452.694 68.3134 452.396 67.8778C452.097 67.4422 451.948 66.8954 451.948 66.2372V55.4773ZM458.658 69V58.0909H460.782V69H458.658ZM459.73 56.4077C459.361 56.4077 459.044 56.2846 458.779 56.0384C458.518 55.7874 458.388 55.4891 458.388 55.1435C458.388 54.7931 458.518 54.4948 458.779 54.2486C459.044 53.9976 459.361 53.8722 459.73 53.8722C460.1 53.8722 460.415 53.9976 460.675 54.2486C460.94 54.4948 461.073 54.7931 461.073 55.1435C461.073 55.4891 460.94 55.7874 460.675 56.0384C460.415 56.2846 460.1 56.4077 459.73 56.4077ZM468.234 69.2202C467.211 69.2202 466.318 68.9858 465.556 68.517C464.794 68.0483 464.202 67.3925 463.781 66.5497C463.359 65.7069 463.148 64.7221 463.148 63.5952C463.148 62.4635 463.359 61.474 463.781 60.6264C464.202 59.7789 464.794 59.1207 465.556 58.652C466.318 58.1832 467.211 57.9489 468.234 57.9489C469.256 57.9489 470.149 58.1832 470.911 58.652C471.674 59.1207 472.265 59.7789 472.687 60.6264C473.108 61.474 473.319 62.4635 473.319 63.5952C473.319 64.7221 473.108 65.7069 472.687 66.5497C472.265 67.3925 471.674 68.0483 470.911 68.517C470.149 68.9858 469.256 69.2202 468.234 69.2202ZM468.241 67.4375C468.904 67.4375 469.453 67.2623 469.888 66.9119C470.324 66.5616 470.646 66.0952 470.854 65.5128C471.067 64.9304 471.174 64.2888 471.174 63.5881C471.174 62.892 471.067 62.2528 470.854 61.6705C470.646 61.0833 470.324 60.6122 469.888 60.2571C469.453 59.902 468.904 59.7244 468.241 59.7244C467.573 59.7244 467.019 59.902 466.579 60.2571C466.143 60.6122 465.819 61.0833 465.606 61.6705C465.397 62.2528 465.293 62.892 465.293 63.5881C465.293 64.2888 465.397 64.9304 465.606 65.5128C465.819 66.0952 466.143 66.5616 466.579 66.9119C467.019 67.2623 467.573 67.4375 468.241 67.4375ZM477.813 62.5227V69H475.689V58.0909H477.728V59.8665H477.863C478.114 59.2888 478.507 58.8248 479.042 58.4744C479.581 58.1241 480.261 57.9489 481.08 57.9489C481.823 57.9489 482.474 58.1051 483.033 58.4176C483.592 58.7254 484.025 59.1847 484.333 59.7955C484.641 60.4062 484.794 61.1615 484.794 62.0611V69H482.671V62.3168C482.671 61.526 482.465 60.9081 482.053 60.4631C481.641 60.0133 481.075 59.7884 480.355 59.7884C479.863 59.7884 479.425 59.8949 479.042 60.108C478.663 60.321 478.362 60.6335 478.14 61.0455C477.922 61.4527 477.813 61.9451 477.813 62.5227ZM493.106 69V54.4545H495.3V67.1108H501.891V69H493.106ZM504.224 69V58.0909H506.348V69H504.224ZM505.297 56.4077C504.928 56.4077 504.61 56.2846 504.345 56.0384C504.085 55.7874 503.955 55.4891 503.955 55.1435C503.955 54.7931 504.085 54.4948 504.345 54.2486C504.61 53.9976 504.928 53.8722 505.297 53.8722C505.666 53.8722 505.981 53.9976 506.241 54.2486C506.507 54.4948 506.639 54.7931 506.639 55.1435C506.639 55.4891 506.507 55.7874 506.241 56.0384C505.981 56.2846 505.666 56.4077 505.297 56.4077ZM511.328 62.5227V69H509.205V58.0909H511.243V59.8665H511.378C511.629 59.2888 512.022 58.8248 512.557 58.4744C513.097 58.1241 513.776 57.9489 514.596 57.9489C515.339 57.9489 515.99 58.1051 516.549 58.4176C517.107 58.7254 517.541 59.1847 517.848 59.7955C518.156 60.4062 518.31 61.1615 518.31 62.0611V69H516.186V62.3168C516.186 61.526 515.98 60.9081 515.569 60.4631C515.157 60.0133 514.591 59.7884 513.871 59.7884C513.379 59.7884 512.941 59.8949 512.557 60.108C512.178 60.321 511.878 60.6335 511.655 61.0455C511.437 61.4527 511.328 61.9451 511.328 62.5227ZM523.111 65.2997L523.097 62.7074H523.466L527.813 58.0909H530.355L525.398 63.3466H525.064L523.111 65.2997ZM521.158 69V54.4545H523.282V69H521.158ZM528.047 69L524.141 63.8153L525.604 62.331L530.654 69H528.047ZM540.466 60.7543L538.541 61.0952C538.46 60.849 538.333 60.6146 538.157 60.392C537.987 60.1695 537.755 59.9872 537.461 59.8452C537.168 59.7031 536.801 59.6321 536.36 59.6321C535.759 59.6321 535.257 59.767 534.855 60.0369C534.452 60.3021 534.251 60.6454 534.251 61.0668C534.251 61.4313 534.386 61.7249 534.656 61.9474C534.926 62.17 535.361 62.3523 535.963 62.4943L537.696 62.892C538.699 63.1241 539.448 63.4815 539.94 63.9645C540.432 64.4474 540.679 65.0748 540.679 65.8466C540.679 66.5 540.489 67.0824 540.11 67.5938C539.736 68.1004 539.213 68.4981 538.541 68.7869C537.873 69.0758 537.099 69.2202 536.218 69.2202C534.997 69.2202 534 68.9598 533.228 68.4389C532.457 67.9134 531.983 67.1676 531.808 66.2017L533.86 65.8892C533.988 66.4242 534.251 66.8291 534.649 67.1037C535.047 67.3736 535.565 67.5085 536.204 67.5085C536.9 67.5085 537.457 67.3641 537.873 67.0753C538.29 66.7817 538.498 66.4242 538.498 66.0028C538.498 65.6619 538.37 65.3755 538.115 65.1435C537.864 64.9115 537.478 64.7363 536.957 64.6179L535.11 64.2131C534.092 63.9811 533.34 63.6117 532.852 63.1051C532.369 62.5985 532.127 61.9569 532.127 61.1804C532.127 60.5365 532.307 59.973 532.667 59.4901C533.027 59.0071 533.524 58.6307 534.159 58.3608C534.793 58.0862 535.52 57.9489 536.339 57.9489C537.518 57.9489 538.446 58.2045 539.123 58.7159C539.8 59.2225 540.248 59.902 540.466 60.7543Z" fill="white"/>
<path d="M160.531 163.276C160.455 162.603 160.143 162.082 159.594 161.713C159.045 161.339 158.353 161.152 157.52 161.152C156.923 161.152 156.407 161.247 155.972 161.436C155.536 161.621 155.197 161.876 154.956 162.203C154.719 162.525 154.601 162.892 154.601 163.304C154.601 163.65 154.681 163.948 154.842 164.199C155.008 164.45 155.223 164.661 155.489 164.831C155.759 164.997 156.047 165.136 156.355 165.25C156.663 165.359 156.959 165.449 157.243 165.52L158.663 165.889C159.127 166.003 159.603 166.157 160.091 166.351C160.579 166.545 161.031 166.801 161.447 167.118C161.864 167.435 162.2 167.828 162.456 168.297C162.716 168.766 162.847 169.327 162.847 169.98C162.847 170.804 162.634 171.536 162.207 172.175C161.786 172.814 161.173 173.318 160.368 173.688C159.568 174.057 158.599 174.241 157.463 174.241C156.374 174.241 155.432 174.069 154.636 173.723C153.841 173.377 153.218 172.887 152.768 172.253C152.319 171.614 152.07 170.856 152.023 169.98H154.224C154.267 170.506 154.438 170.944 154.736 171.294C155.039 171.64 155.425 171.898 155.893 172.068C156.367 172.234 156.885 172.317 157.449 172.317C158.069 172.317 158.621 172.22 159.104 172.026C159.591 171.827 159.975 171.552 160.254 171.202C160.534 170.847 160.673 170.432 160.673 169.959C160.673 169.528 160.55 169.175 160.304 168.901C160.063 168.626 159.733 168.399 159.317 168.219C158.905 168.039 158.438 167.88 157.918 167.743L156.199 167.274C155.034 166.957 154.111 166.491 153.429 165.875C152.752 165.259 152.413 164.445 152.413 163.432C152.413 162.594 152.641 161.862 153.095 161.237C153.55 160.612 154.165 160.127 154.942 159.781C155.718 159.431 156.594 159.256 157.57 159.256C158.554 159.256 159.423 159.429 160.176 159.774C160.934 160.12 161.53 160.596 161.966 161.202C162.402 161.803 162.629 162.494 162.648 163.276H160.531ZM166.641 178.091C166.324 178.091 166.035 178.065 165.775 178.013C165.514 177.965 165.32 177.913 165.192 177.857L165.703 176.116C166.092 176.221 166.437 176.266 166.74 176.251C167.043 176.237 167.311 176.124 167.543 175.911C167.78 175.697 167.988 175.349 168.168 174.866L168.431 174.142L164.439 163.091H166.712L169.475 171.557H169.588L172.351 163.091H174.631L170.135 175.456C169.927 176.024 169.662 176.505 169.34 176.898C169.018 177.295 168.634 177.594 168.189 177.793C167.744 177.991 167.228 178.091 166.641 178.091ZM178.75 167.523V174H176.627V163.091H178.665V164.866H178.8C179.051 164.289 179.444 163.825 179.979 163.474C180.519 163.124 181.198 162.949 182.017 162.949C182.761 162.949 183.412 163.105 183.971 163.418C184.529 163.725 184.962 164.185 185.27 164.795C185.578 165.406 185.732 166.161 185.732 167.061V174H183.608V167.317C183.608 166.526 183.402 165.908 182.99 165.463C182.578 165.013 182.013 164.788 181.293 164.788C180.801 164.788 180.363 164.895 179.979 165.108C179.6 165.321 179.3 165.634 179.077 166.045C178.859 166.453 178.75 166.945 178.75 167.523ZM193.175 174.22C192.119 174.22 191.21 173.981 190.448 173.503C189.69 173.02 189.108 172.355 188.701 171.507C188.293 170.66 188.09 169.689 188.09 168.595C188.09 167.487 188.298 166.509 188.715 165.662C189.132 164.81 189.719 164.144 190.476 163.666C191.234 163.188 192.126 162.949 193.154 162.949C193.982 162.949 194.721 163.103 195.37 163.411C196.018 163.714 196.542 164.14 196.939 164.689C197.342 165.238 197.581 165.88 197.657 166.614H195.59C195.476 166.102 195.216 165.662 194.809 165.293C194.406 164.923 193.866 164.739 193.189 164.739C192.597 164.739 192.079 164.895 191.634 165.207C191.194 165.515 190.85 165.955 190.604 166.528C190.358 167.097 190.235 167.769 190.235 168.545C190.235 169.341 190.355 170.027 190.597 170.605C190.838 171.183 191.179 171.63 191.62 171.947C192.065 172.265 192.588 172.423 193.189 172.423C193.592 172.423 193.956 172.35 194.283 172.203C194.614 172.052 194.891 171.836 195.114 171.557C195.341 171.277 195.5 170.941 195.59 170.548H197.657C197.581 171.254 197.351 171.884 196.968 172.438C196.584 172.991 196.07 173.427 195.426 173.744C194.787 174.062 194.037 174.22 193.175 174.22ZM210.412 163.091V164.795H204.248V163.091H210.412ZM205.938 174V161.827C205.938 161.145 206.087 160.579 206.385 160.129C206.684 159.675 207.079 159.336 207.571 159.114C208.064 158.886 208.599 158.773 209.176 158.773C209.603 158.773 209.967 158.808 210.27 158.879C210.573 158.946 210.798 159.007 210.945 159.064L210.448 160.783C210.348 160.754 210.221 160.721 210.064 160.683C209.908 160.641 209.719 160.619 209.496 160.619C208.98 160.619 208.611 160.747 208.388 161.003C208.17 161.259 208.061 161.628 208.061 162.111V174H205.938ZM212.603 174V163.091H214.656V164.824H214.77C214.968 164.237 215.319 163.775 215.821 163.439C216.327 163.098 216.9 162.928 217.539 162.928C217.672 162.928 217.828 162.932 218.008 162.942C218.193 162.951 218.337 162.963 218.441 162.977V165.009C218.356 164.985 218.205 164.959 217.987 164.93C217.769 164.897 217.551 164.881 217.333 164.881C216.832 164.881 216.384 164.987 215.991 165.2C215.603 165.409 215.295 165.7 215.068 166.074C214.841 166.443 214.727 166.865 214.727 167.338V174H212.603ZM224.484 174.22C223.461 174.22 222.568 173.986 221.806 173.517C221.044 173.048 220.452 172.393 220.031 171.55C219.609 170.707 219.398 169.722 219.398 168.595C219.398 167.464 219.609 166.474 220.031 165.626C220.452 164.779 221.044 164.121 221.806 163.652C222.568 163.183 223.461 162.949 224.484 162.949C225.506 162.949 226.399 163.183 227.161 163.652C227.924 164.121 228.515 164.779 228.937 165.626C229.358 166.474 229.569 167.464 229.569 168.595C229.569 169.722 229.358 170.707 228.937 171.55C228.515 172.393 227.924 173.048 227.161 173.517C226.399 173.986 225.506 174.22 224.484 174.22ZM224.491 172.438C225.154 172.438 225.703 172.262 226.138 171.912C226.574 171.562 226.896 171.095 227.104 170.513C227.317 169.93 227.424 169.289 227.424 168.588C227.424 167.892 227.317 167.253 227.104 166.67C226.896 166.083 226.574 165.612 226.138 165.257C225.703 164.902 225.154 164.724 224.491 164.724C223.823 164.724 223.269 164.902 222.829 165.257C222.393 165.612 222.069 166.083 221.856 166.67C221.647 167.253 221.543 167.892 221.543 168.588C221.543 169.289 221.647 169.93 221.856 170.513C222.069 171.095 222.393 171.562 222.829 171.912C223.269 172.262 223.823 172.438 224.491 172.438ZM231.939 174V163.091H233.978V164.866H234.113C234.34 164.265 234.712 163.796 235.228 163.46C235.744 163.119 236.362 162.949 237.081 162.949C237.81 162.949 238.421 163.119 238.914 163.46C239.411 163.801 239.778 164.27 240.015 164.866H240.128C240.389 164.284 240.803 163.82 241.371 163.474C241.939 163.124 242.616 162.949 243.402 162.949C244.392 162.949 245.199 163.259 245.824 163.879C246.454 164.5 246.769 165.435 246.769 166.685V174H244.645V166.884C244.645 166.145 244.444 165.61 244.042 165.278C243.639 164.947 243.158 164.781 242.6 164.781C241.908 164.781 241.371 164.994 240.988 165.42C240.604 165.842 240.412 166.384 240.412 167.047V174H238.296V166.749C238.296 166.157 238.111 165.681 237.742 165.321C237.373 164.961 236.892 164.781 236.3 164.781C235.898 164.781 235.526 164.888 235.185 165.101C234.849 165.309 234.577 165.6 234.368 165.974C234.165 166.348 234.063 166.782 234.063 167.274V174H231.939ZM267.159 164.185H264.944C264.858 163.711 264.7 163.295 264.468 162.935C264.236 162.575 263.952 162.269 263.615 162.018C263.279 161.768 262.903 161.578 262.486 161.45C262.074 161.322 261.636 161.259 261.172 161.259C260.334 161.259 259.584 161.469 258.921 161.891C258.263 162.312 257.742 162.93 257.358 163.744C256.98 164.559 256.79 165.553 256.79 166.727C256.79 167.911 256.98 168.91 257.358 169.724C257.742 170.539 258.265 171.154 258.928 171.571C259.591 171.988 260.337 172.196 261.165 172.196C261.624 172.196 262.06 172.134 262.472 172.011C262.889 171.884 263.265 171.696 263.601 171.45C263.937 171.204 264.221 170.903 264.453 170.548C264.69 170.188 264.854 169.777 264.944 169.312L267.159 169.32C267.041 170.035 266.811 170.693 266.471 171.294C266.134 171.891 265.701 172.407 265.171 172.842C264.645 173.273 264.044 173.607 263.367 173.844C262.69 174.08 261.951 174.199 261.151 174.199C259.891 174.199 258.769 173.901 257.784 173.304C256.8 172.703 256.023 171.843 255.455 170.726C254.891 169.608 254.61 168.276 254.61 166.727C254.61 165.174 254.894 163.841 255.462 162.729C256.03 161.611 256.807 160.754 257.792 160.158C258.776 159.556 259.896 159.256 261.151 159.256C261.923 159.256 262.642 159.367 263.31 159.589C263.982 159.807 264.586 160.129 265.121 160.555C265.656 160.977 266.099 161.493 266.449 162.104C266.8 162.71 267.036 163.403 267.159 164.185ZM274.21 174.22C273.188 174.22 272.295 173.986 271.533 173.517C270.77 173.048 270.179 172.393 269.757 171.55C269.336 170.707 269.125 169.722 269.125 168.595C269.125 167.464 269.336 166.474 269.757 165.626C270.179 164.779 270.77 164.121 271.533 163.652C272.295 163.183 273.188 162.949 274.21 162.949C275.233 162.949 276.125 163.183 276.888 163.652C277.65 164.121 278.242 164.779 278.663 165.626C279.085 166.474 279.295 167.464 279.295 168.595C279.295 169.722 279.085 170.707 278.663 171.55C278.242 172.393 277.65 173.048 276.888 173.517C276.125 173.986 275.233 174.22 274.21 174.22ZM274.217 172.438C274.88 172.438 275.429 172.262 275.865 171.912C276.301 171.562 276.623 171.095 276.831 170.513C277.044 169.93 277.151 169.289 277.151 168.588C277.151 167.892 277.044 167.253 276.831 166.67C276.623 166.083 276.301 165.612 275.865 165.257C275.429 164.902 274.88 164.724 274.217 164.724C273.55 164.724 272.996 164.902 272.555 165.257C272.12 165.612 271.795 166.083 271.582 166.67C271.374 167.253 271.27 167.892 271.27 168.588C271.27 169.289 271.374 169.93 271.582 170.513C271.795 171.095 272.12 171.562 272.555 171.912C272.996 172.262 273.55 172.438 274.217 172.438ZM283.789 167.523V174H281.666V163.091H283.704V164.866H283.839C284.09 164.289 284.483 163.825 285.018 163.474C285.558 163.124 286.237 162.949 287.056 162.949C287.8 162.949 288.451 163.105 289.01 163.418C289.568 163.725 290.002 164.185 290.309 164.795C290.617 165.406 290.771 166.161 290.771 167.061V174H288.647V167.317C288.647 166.526 288.441 165.908 288.029 165.463C287.618 165.013 287.052 164.788 286.332 164.788C285.84 164.788 285.402 164.895 285.018 165.108C284.639 165.321 284.339 165.634 284.116 166.045C283.898 166.453 283.789 166.945 283.789 167.523ZM298.811 163.091V164.795H292.646V163.091H298.811ZM294.336 174V161.827C294.336 161.145 294.485 160.579 294.784 160.129C295.082 159.675 295.477 159.336 295.97 159.114C296.462 158.886 296.997 158.773 297.575 158.773C298.001 158.773 298.366 158.808 298.669 158.879C298.972 158.946 299.197 159.007 299.343 159.064L298.846 160.783C298.747 160.754 298.619 160.721 298.463 160.683C298.306 160.641 298.117 160.619 297.895 160.619C297.378 160.619 297.009 160.747 296.787 161.003C296.569 161.259 296.46 161.628 296.46 162.111V174H294.336ZM303.125 159.455V174H301.002V159.455H303.125ZM312.893 169.476V163.091H315.023V174H312.935V172.111H312.822C312.571 172.693 312.168 173.179 311.614 173.567C311.065 173.95 310.381 174.142 309.562 174.142C308.861 174.142 308.241 173.988 307.701 173.68C307.166 173.368 306.745 172.906 306.437 172.295C306.134 171.685 305.982 170.929 305.982 170.03V163.091H308.106V169.774C308.106 170.518 308.312 171.109 308.724 171.55C309.136 171.99 309.671 172.21 310.329 172.21C310.727 172.21 311.122 172.111 311.515 171.912C311.913 171.713 312.242 171.412 312.502 171.01C312.767 170.607 312.897 170.096 312.893 169.476ZM322.578 174.22C321.504 174.22 320.578 173.991 319.801 173.531C319.03 173.067 318.433 172.416 318.012 171.578C317.595 170.735 317.387 169.748 317.387 168.616C317.387 167.499 317.595 166.514 318.012 165.662C318.433 164.81 319.02 164.144 319.773 163.666C320.531 163.188 321.416 162.949 322.429 162.949C323.045 162.949 323.641 163.051 324.219 163.254C324.797 163.458 325.315 163.777 325.775 164.213C326.234 164.649 326.596 165.214 326.861 165.911C327.126 166.602 327.259 167.442 327.259 168.432V169.185H318.587V167.594H325.178C325.178 167.035 325.064 166.54 324.837 166.109C324.61 165.674 324.29 165.33 323.878 165.08C323.471 164.829 322.993 164.703 322.444 164.703C321.847 164.703 321.326 164.85 320.881 165.143C320.441 165.432 320.1 165.811 319.858 166.28C319.622 166.744 319.503 167.248 319.503 167.793V169.036C319.503 169.765 319.631 170.385 319.887 170.896C320.147 171.408 320.509 171.798 320.973 172.068C321.437 172.333 321.98 172.466 322.6 172.466C323.002 172.466 323.369 172.409 323.701 172.295C324.032 172.177 324.319 172.002 324.56 171.77C324.801 171.538 324.986 171.251 325.114 170.911L327.124 171.273C326.963 171.865 326.674 172.383 326.257 172.828C325.846 173.268 325.327 173.612 324.702 173.858C324.082 174.099 323.374 174.22 322.578 174.22ZM331.739 167.523V174H329.615V163.091H331.653V164.866H331.788C332.039 164.289 332.432 163.825 332.967 163.474C333.507 163.124 334.187 162.949 335.006 162.949C335.749 162.949 336.4 163.105 336.959 163.418C337.518 163.725 337.951 164.185 338.259 164.795C338.566 165.406 338.72 166.161 338.72 167.061V174H336.597V167.317C336.597 166.526 336.391 165.908 335.979 165.463C335.567 165.013 335.001 164.788 334.281 164.788C333.789 164.788 333.351 164.895 332.967 165.108C332.589 165.321 332.288 165.634 332.065 166.045C331.848 166.453 331.739 166.945 331.739 167.523ZM346.163 174.22C345.107 174.22 344.198 173.981 343.436 173.503C342.679 173.02 342.096 172.355 341.689 171.507C341.282 170.66 341.078 169.689 341.078 168.595C341.078 167.487 341.286 166.509 341.703 165.662C342.12 164.81 342.707 164.144 343.464 163.666C344.222 163.188 345.115 162.949 346.142 162.949C346.971 162.949 347.709 163.103 348.358 163.411C349.007 163.714 349.53 164.14 349.928 164.689C350.33 165.238 350.569 165.88 350.645 166.614H348.578C348.464 166.102 348.204 165.662 347.797 165.293C347.394 164.923 346.855 164.739 346.178 164.739C345.586 164.739 345.067 164.895 344.622 165.207C344.182 165.515 343.839 165.955 343.592 166.528C343.346 167.097 343.223 167.769 343.223 168.545C343.223 169.341 343.344 170.027 343.585 170.605C343.827 171.183 344.168 171.63 344.608 171.947C345.053 172.265 345.576 172.423 346.178 172.423C346.58 172.423 346.945 172.35 347.271 172.203C347.603 172.052 347.88 171.836 348.102 171.557C348.33 171.277 348.488 170.941 348.578 170.548H350.645C350.569 171.254 350.339 171.884 349.956 172.438C349.572 172.991 349.059 173.427 348.415 173.744C347.776 174.062 347.025 174.22 346.163 174.22ZM357.618 174.22C356.543 174.22 355.617 173.991 354.841 173.531C354.069 173.067 353.472 172.416 353.051 171.578C352.634 170.735 352.426 169.748 352.426 168.616C352.426 167.499 352.634 166.514 353.051 165.662C353.472 164.81 354.059 164.144 354.812 163.666C355.57 163.188 356.455 162.949 357.468 162.949C358.084 162.949 358.681 163.051 359.258 163.254C359.836 163.458 360.354 163.777 360.814 164.213C361.273 164.649 361.635 165.214 361.9 165.911C362.165 166.602 362.298 167.442 362.298 168.432V169.185H353.626V167.594H360.217C360.217 167.035 360.103 166.54 359.876 166.109C359.649 165.674 359.329 165.33 358.917 165.08C358.51 164.829 358.032 164.703 357.483 164.703C356.886 164.703 356.365 164.85 355.92 165.143C355.48 165.432 355.139 165.811 354.897 166.28C354.661 166.744 354.542 167.248 354.542 167.793V169.036C354.542 169.765 354.67 170.385 354.926 170.896C355.186 171.408 355.548 171.798 356.012 172.068C356.476 172.333 357.019 172.466 357.639 172.466C358.041 172.466 358.408 172.409 358.74 172.295C359.071 172.177 359.358 172.002 359.599 171.77C359.841 171.538 360.025 171.251 360.153 170.911L362.163 171.273C362.002 171.865 361.713 172.383 361.297 172.828C360.885 173.268 360.366 173.612 359.741 173.858C359.121 174.099 358.413 174.22 357.618 174.22ZM373.122 174.241C372.431 174.241 371.806 174.114 371.247 173.858C370.688 173.598 370.245 173.221 369.919 172.729C369.597 172.236 369.436 171.633 369.436 170.918C369.436 170.302 369.554 169.795 369.791 169.398C370.028 169 370.347 168.685 370.75 168.453C371.152 168.221 371.602 168.046 372.099 167.928C372.596 167.809 373.103 167.719 373.619 167.658C374.272 167.582 374.803 167.52 375.21 167.473C375.617 167.421 375.913 167.338 376.098 167.224C376.282 167.111 376.375 166.926 376.375 166.67V166.621C376.375 166 376.199 165.52 375.849 165.179C375.503 164.838 374.987 164.668 374.301 164.668C373.586 164.668 373.022 164.826 372.61 165.143C372.203 165.456 371.922 165.804 371.765 166.188L369.77 165.733C370.006 165.07 370.352 164.535 370.806 164.128C371.266 163.716 371.794 163.418 372.39 163.233C372.987 163.044 373.614 162.949 374.272 162.949C374.708 162.949 375.17 163.001 375.657 163.105C376.15 163.205 376.609 163.389 377.035 163.659C377.466 163.929 377.819 164.315 378.093 164.817C378.368 165.314 378.505 165.96 378.505 166.756V174H376.431V172.509H376.346C376.209 172.783 376.003 173.053 375.728 173.318C375.454 173.583 375.101 173.804 374.67 173.979C374.239 174.154 373.723 174.241 373.122 174.241ZM373.583 172.537C374.171 172.537 374.672 172.421 375.089 172.189C375.511 171.957 375.83 171.654 376.048 171.28C376.27 170.901 376.382 170.496 376.382 170.065V168.659C376.306 168.735 376.159 168.806 375.941 168.872C375.728 168.934 375.484 168.988 375.21 169.036C374.935 169.078 374.668 169.118 374.407 169.156C374.147 169.189 373.929 169.218 373.754 169.241C373.342 169.294 372.966 169.381 372.625 169.504C372.288 169.627 372.019 169.805 371.815 170.037C371.616 170.264 371.517 170.567 371.517 170.946C371.517 171.472 371.711 171.869 372.099 172.139C372.487 172.404 372.982 172.537 373.583 172.537ZM383.457 167.523V174H381.334V163.091H383.372V164.866H383.507C383.758 164.289 384.151 163.825 384.686 163.474C385.226 163.124 385.905 162.949 386.724 162.949C387.468 162.949 388.119 163.105 388.678 163.418C389.236 163.725 389.67 164.185 389.977 164.795C390.285 165.406 390.439 166.161 390.439 167.061V174H388.315V167.317C388.315 166.526 388.109 165.908 387.697 165.463C387.286 165.013 386.72 164.788 386 164.788C385.508 164.788 385.07 164.895 384.686 165.108C384.307 165.321 384.007 165.634 383.784 166.045C383.566 166.453 383.457 166.945 383.457 167.523ZM397.371 174.213C396.49 174.213 395.704 173.988 395.013 173.538C394.326 173.084 393.786 172.437 393.393 171.599C393.005 170.757 392.811 169.746 392.811 168.567C392.811 167.388 393.008 166.379 393.401 165.541C393.798 164.703 394.343 164.062 395.034 163.616C395.725 163.171 396.509 162.949 397.385 162.949C398.062 162.949 398.607 163.062 399.018 163.29C399.435 163.512 399.757 163.773 399.984 164.071C400.216 164.369 400.396 164.632 400.524 164.859H400.652V159.455H402.776V174H400.702V172.303H400.524C400.396 172.535 400.212 172.8 399.97 173.098C399.733 173.396 399.407 173.657 398.99 173.879C398.573 174.102 398.034 174.213 397.371 174.213ZM397.839 172.402C398.45 172.402 398.966 172.241 399.388 171.919C399.814 171.592 400.136 171.14 400.354 170.562C400.576 169.985 400.688 169.312 400.688 168.545C400.688 167.788 400.579 167.125 400.361 166.557C400.143 165.989 399.823 165.546 399.402 165.229C398.981 164.911 398.46 164.753 397.839 164.753C397.2 164.753 396.668 164.919 396.241 165.25C395.815 165.581 395.493 166.034 395.276 166.607C395.063 167.179 394.956 167.826 394.956 168.545C394.956 169.275 395.065 169.93 395.283 170.513C395.5 171.095 395.822 171.557 396.249 171.898C396.679 172.234 397.21 172.402 397.839 172.402ZM419.203 163.276C419.127 162.603 418.815 162.082 418.266 161.713C417.716 161.339 417.025 161.152 416.192 161.152C415.595 161.152 415.079 161.247 414.643 161.436C414.208 161.621 413.869 161.876 413.628 162.203C413.391 162.525 413.273 162.892 413.273 163.304C413.273 163.65 413.353 163.948 413.514 164.199C413.68 164.45 413.895 164.661 414.161 164.831C414.43 164.997 414.719 165.136 415.027 165.25C415.335 165.359 415.631 165.449 415.915 165.52L417.335 165.889C417.799 166.003 418.275 166.157 418.763 166.351C419.25 166.545 419.703 166.801 420.119 167.118C420.536 167.435 420.872 167.828 421.128 168.297C421.388 168.766 421.518 169.327 421.518 169.98C421.518 170.804 421.305 171.536 420.879 172.175C420.458 172.814 419.845 173.318 419.04 173.688C418.24 174.057 417.271 174.241 416.135 174.241C415.046 174.241 414.104 174.069 413.308 173.723C412.513 173.377 411.89 172.887 411.44 172.253C410.991 171.614 410.742 170.856 410.695 169.98H412.896C412.939 170.506 413.109 170.944 413.408 171.294C413.711 171.64 414.097 171.898 414.565 172.068C415.039 172.234 415.557 172.317 416.121 172.317C416.741 172.317 417.293 172.22 417.776 172.026C418.263 171.827 418.647 171.552 418.926 171.202C419.205 170.847 419.345 170.432 419.345 169.959C419.345 169.528 419.222 169.175 418.976 168.901C418.734 168.626 418.405 168.399 417.989 168.219C417.577 168.039 417.11 167.88 416.589 167.743L414.871 167.274C413.706 166.957 412.783 166.491 412.101 165.875C411.424 165.259 411.085 164.445 411.085 163.432C411.085 162.594 411.313 161.862 411.767 161.237C412.222 160.612 412.837 160.127 413.614 159.781C414.39 159.431 415.266 159.256 416.241 159.256C417.226 159.256 418.095 159.429 418.848 159.774C419.606 160.12 420.202 160.596 420.638 161.202C421.073 161.803 421.301 162.494 421.32 163.276H419.203ZM426.094 167.523V174H423.971V159.455H426.066V164.866H426.201C426.456 164.279 426.847 163.813 427.373 163.467C427.898 163.122 428.585 162.949 429.432 162.949C430.18 162.949 430.834 163.103 431.392 163.411C431.956 163.718 432.391 164.178 432.699 164.788C433.012 165.394 433.168 166.152 433.168 167.061V174H431.044V167.317C431.044 166.517 430.838 165.896 430.426 165.456C430.015 165.011 429.442 164.788 428.708 164.788C428.206 164.788 427.756 164.895 427.358 165.108C426.965 165.321 426.655 165.634 426.428 166.045C426.205 166.453 426.094 166.945 426.094 167.523ZM439.176 174.241C438.485 174.241 437.86 174.114 437.301 173.858C436.743 173.598 436.3 173.221 435.973 172.729C435.651 172.236 435.49 171.633 435.49 170.918C435.49 170.302 435.609 169.795 435.846 169.398C436.082 169 436.402 168.685 436.804 168.453C437.207 168.221 437.657 168.046 438.154 167.928C438.651 167.809 439.158 167.719 439.674 167.658C440.327 167.582 440.857 167.52 441.265 167.473C441.672 167.421 441.968 167.338 442.152 167.224C442.337 167.111 442.429 166.926 442.429 166.67V166.621C442.429 166 442.254 165.52 441.904 165.179C441.558 164.838 441.042 164.668 440.355 164.668C439.641 164.668 439.077 164.826 438.665 165.143C438.258 165.456 437.976 165.804 437.82 166.188L435.824 165.733C436.061 165.07 436.407 164.535 436.861 164.128C437.32 163.716 437.848 163.418 438.445 163.233C439.042 163.044 439.669 162.949 440.327 162.949C440.763 162.949 441.224 163.001 441.712 163.105C442.204 163.205 442.664 163.389 443.09 163.659C443.521 163.929 443.873 164.315 444.148 164.817C444.423 165.314 444.56 165.96 444.56 166.756V174H442.486V172.509H442.401C442.264 172.783 442.058 173.053 441.783 173.318C441.508 173.583 441.156 173.804 440.725 173.979C440.294 174.154 439.778 174.241 439.176 174.241ZM439.638 172.537C440.225 172.537 440.727 172.421 441.144 172.189C441.565 171.957 441.885 171.654 442.103 171.28C442.325 170.901 442.436 170.496 442.436 170.065V168.659C442.361 168.735 442.214 168.806 441.996 168.872C441.783 168.934 441.539 168.988 441.265 169.036C440.99 169.078 440.722 169.118 440.462 169.156C440.202 169.189 439.984 169.218 439.809 169.241C439.397 169.294 439.02 169.381 438.679 169.504C438.343 169.627 438.073 169.805 437.87 170.037C437.671 170.264 437.571 170.567 437.571 170.946C437.571 171.472 437.766 171.869 438.154 172.139C438.542 172.404 439.037 172.537 439.638 172.537ZM447.388 174V163.091H449.441V164.824H449.555C449.754 164.237 450.104 163.775 450.606 163.439C451.112 163.098 451.685 162.928 452.325 162.928C452.457 162.928 452.613 162.932 452.793 162.942C452.978 162.951 453.122 162.963 453.227 162.977V165.009C453.141 164.985 452.99 164.959 452.772 164.93C452.554 164.897 452.336 164.881 452.119 164.881C451.617 164.881 451.169 164.987 450.776 165.2C450.388 165.409 450.08 165.7 449.853 166.074C449.626 166.443 449.512 166.865 449.512 167.338V174H447.388ZM459.375 174.22C458.301 174.22 457.375 173.991 456.598 173.531C455.827 173.067 455.23 172.416 454.809 171.578C454.392 170.735 454.184 169.748 454.184 168.616C454.184 167.499 454.392 166.514 454.809 165.662C455.23 164.81 455.817 164.144 456.57 163.666C457.328 163.188 458.213 162.949 459.226 162.949C459.842 162.949 460.438 163.051 461.016 163.254C461.594 163.458 462.112 163.777 462.571 164.213C463.031 164.649 463.393 165.214 463.658 165.911C463.923 166.602 464.056 167.442 464.056 168.432V169.185H455.384V167.594H461.975C461.975 167.035 461.861 166.54 461.634 166.109C461.407 165.674 461.087 165.33 460.675 165.08C460.268 164.829 459.79 164.703 459.24 164.703C458.644 164.703 458.123 164.85 457.678 165.143C457.238 165.432 456.897 165.811 456.655 166.28C456.418 166.744 456.3 167.248 456.3 167.793V169.036C456.3 169.765 456.428 170.385 456.684 170.896C456.944 171.408 457.306 171.798 457.77 172.068C458.234 172.333 458.776 172.466 459.397 172.466C459.799 172.466 460.166 172.409 460.498 172.295C460.829 172.177 461.115 172.002 461.357 171.77C461.598 171.538 461.783 171.251 461.911 170.911L463.921 171.273C463.76 171.865 463.471 172.383 463.054 172.828C462.642 173.268 462.124 173.612 461.499 173.858C460.879 174.099 460.171 174.22 459.375 174.22ZM466.412 178.091V163.091H468.486V164.859H468.663C468.786 164.632 468.964 164.369 469.196 164.071C469.428 163.773 469.75 163.512 470.162 163.29C470.574 163.062 471.118 162.949 471.795 162.949C472.676 162.949 473.462 163.171 474.153 163.616C474.845 164.062 475.387 164.703 475.78 165.541C476.178 166.379 476.376 167.388 476.376 168.567C476.376 169.746 476.18 170.757 475.787 171.599C475.394 172.437 474.854 173.084 474.168 173.538C473.481 173.988 472.697 174.213 471.817 174.213C471.154 174.213 470.612 174.102 470.19 173.879C469.774 173.657 469.447 173.396 469.21 173.098C468.973 172.8 468.791 172.535 468.663 172.303H468.536V178.091H466.412ZM468.493 168.545C468.493 169.312 468.604 169.985 468.827 170.562C469.049 171.14 469.371 171.592 469.793 171.919C470.214 172.241 470.73 172.402 471.341 172.402C471.975 172.402 472.506 172.234 472.932 171.898C473.358 171.557 473.68 171.095 473.898 170.513C474.12 169.93 474.232 169.275 474.232 168.545C474.232 167.826 474.123 167.179 473.905 166.607C473.692 166.034 473.37 165.581 472.939 165.25C472.513 164.919 471.98 164.753 471.341 164.753C470.725 164.753 470.205 164.911 469.778 165.229C469.357 165.546 469.037 165.989 468.82 166.557C468.602 167.125 468.493 167.788 468.493 168.545ZM483.351 174.22C482.328 174.22 481.436 173.986 480.673 173.517C479.911 173.048 479.319 172.393 478.898 171.55C478.476 170.707 478.266 169.722 478.266 168.595C478.266 167.464 478.476 166.474 478.898 165.626C479.319 164.779 479.911 164.121 480.673 163.652C481.436 163.183 482.328 162.949 483.351 162.949C484.374 162.949 485.266 163.183 486.028 163.652C486.791 164.121 487.383 164.779 487.804 165.626C488.225 166.474 488.436 167.464 488.436 168.595C488.436 169.722 488.225 170.707 487.804 171.55C487.383 172.393 486.791 173.048 486.028 173.517C485.266 173.986 484.374 174.22 483.351 174.22ZM483.358 172.438C484.021 172.438 484.57 172.262 485.006 171.912C485.441 171.562 485.763 171.095 485.972 170.513C486.185 169.93 486.291 169.289 486.291 168.588C486.291 167.892 486.185 167.253 485.972 166.67C485.763 166.083 485.441 165.612 485.006 165.257C484.57 164.902 484.021 164.724 483.358 164.724C482.69 164.724 482.136 164.902 481.696 165.257C481.26 165.612 480.936 166.083 480.723 166.67C480.515 167.253 480.411 167.892 480.411 168.588C480.411 169.289 480.515 169.93 480.723 170.513C480.936 171.095 481.26 171.562 481.696 171.912C482.136 172.262 482.69 172.438 483.358 172.438ZM490.806 174V163.091H492.93V174H490.806ZM491.879 161.408C491.51 161.408 491.192 161.285 490.927 161.038C490.667 160.787 490.537 160.489 490.537 160.143C490.537 159.793 490.667 159.495 490.927 159.249C491.192 158.998 491.51 158.872 491.879 158.872C492.248 158.872 492.563 158.998 492.824 159.249C493.089 159.495 493.221 159.793 493.221 160.143C493.221 160.489 493.089 160.787 492.824 161.038C492.563 161.285 492.248 161.408 491.879 161.408ZM497.911 167.523V174H495.787V163.091H497.825V164.866H497.96C498.211 164.289 498.604 163.825 499.139 163.474C499.679 163.124 500.358 162.949 501.178 162.949C501.921 162.949 502.572 163.105 503.131 163.418C503.689 163.725 504.123 164.185 504.43 164.795C504.738 165.406 504.892 166.161 504.892 167.061V174H502.768V167.317C502.768 166.526 502.563 165.908 502.151 165.463C501.739 165.013 501.173 164.788 500.453 164.788C499.961 164.788 499.523 164.895 499.139 165.108C498.76 165.321 498.46 165.634 498.237 166.045C498.019 166.453 497.911 166.945 497.911 167.523ZM512.832 163.091V164.795H506.874V163.091H512.832ZM508.472 160.477H510.595V170.797C510.595 171.209 510.657 171.519 510.78 171.727C510.903 171.931 511.062 172.071 511.256 172.146C511.455 172.217 511.67 172.253 511.902 172.253C512.072 172.253 512.222 172.241 512.349 172.217C512.477 172.194 512.577 172.175 512.648 172.161L513.031 173.915C512.908 173.962 512.733 174.009 512.506 174.057C512.278 174.109 511.994 174.137 511.653 174.142C511.095 174.152 510.574 174.052 510.091 173.844C509.608 173.635 509.217 173.313 508.919 172.878C508.621 172.442 508.472 171.895 508.472 171.237V160.477Z" fill="white"/>
<path d="M156.598 289V274.455H158.793V287.111H165.384V289H156.598ZM172.418 289.22C171.344 289.22 170.418 288.991 169.641 288.531C168.87 288.067 168.273 287.416 167.852 286.578C167.435 285.735 167.227 284.748 167.227 283.616C167.227 282.499 167.435 281.514 167.852 280.662C168.273 279.81 168.86 279.144 169.613 278.666C170.371 278.188 171.256 277.949 172.269 277.949C172.885 277.949 173.481 278.051 174.059 278.254C174.637 278.458 175.155 278.777 175.614 279.213C176.074 279.649 176.436 280.214 176.701 280.911C176.966 281.602 177.099 282.442 177.099 283.432V284.185H168.427V282.594H175.018C175.018 282.035 174.904 281.54 174.677 281.109C174.45 280.674 174.13 280.33 173.718 280.08C173.311 279.829 172.833 279.703 172.283 279.703C171.687 279.703 171.166 279.85 170.721 280.143C170.281 280.432 169.94 280.811 169.698 281.28C169.461 281.744 169.343 282.248 169.343 282.793V284.036C169.343 284.765 169.471 285.385 169.727 285.896C169.987 286.408 170.349 286.798 170.813 287.068C171.277 287.333 171.819 287.466 172.44 287.466C172.842 287.466 173.209 287.409 173.54 287.295C173.872 287.177 174.158 287.002 174.4 286.77C174.641 286.538 174.826 286.251 174.954 285.911L176.964 286.273C176.803 286.865 176.514 287.383 176.097 287.828C175.685 288.268 175.167 288.612 174.542 288.858C173.922 289.099 173.214 289.22 172.418 289.22ZM182.63 289.241C181.938 289.241 181.313 289.114 180.755 288.858C180.196 288.598 179.753 288.221 179.426 287.729C179.105 287.236 178.944 286.633 178.944 285.918C178.944 285.302 179.062 284.795 179.299 284.398C179.535 284 179.855 283.685 180.257 283.453C180.66 283.221 181.11 283.046 181.607 282.928C182.104 282.809 182.611 282.719 183.127 282.658C183.78 282.582 184.31 282.52 184.718 282.473C185.125 282.421 185.421 282.338 185.605 282.224C185.79 282.111 185.882 281.926 185.882 281.67V281.621C185.882 281 185.707 280.52 185.357 280.179C185.011 279.838 184.495 279.668 183.809 279.668C183.094 279.668 182.53 279.826 182.118 280.143C181.711 280.456 181.429 280.804 181.273 281.188L179.277 280.733C179.514 280.07 179.86 279.535 180.314 279.128C180.774 278.716 181.301 278.418 181.898 278.233C182.495 278.044 183.122 277.949 183.78 277.949C184.216 277.949 184.677 278.001 185.165 278.105C185.658 278.205 186.117 278.389 186.543 278.659C186.974 278.929 187.327 279.315 187.601 279.817C187.876 280.314 188.013 280.96 188.013 281.756V289H185.939V287.509H185.854C185.717 287.783 185.511 288.053 185.236 288.318C184.962 288.583 184.609 288.804 184.178 288.979C183.747 289.154 183.231 289.241 182.63 289.241ZM183.091 287.537C183.678 287.537 184.18 287.421 184.597 287.189C185.018 286.957 185.338 286.654 185.556 286.28C185.778 285.901 185.89 285.496 185.89 285.065V283.659C185.814 283.735 185.667 283.806 185.449 283.872C185.236 283.934 184.992 283.988 184.718 284.036C184.443 284.078 184.176 284.118 183.915 284.156C183.655 284.189 183.437 284.218 183.262 284.241C182.85 284.294 182.473 284.381 182.132 284.504C181.796 284.627 181.526 284.805 181.323 285.037C181.124 285.264 181.025 285.567 181.025 285.946C181.025 286.472 181.219 286.869 181.607 287.139C181.995 287.404 182.49 287.537 183.091 287.537ZM190.842 289V278.091H192.894V279.824H193.008C193.207 279.237 193.557 278.775 194.059 278.439C194.566 278.098 195.138 277.928 195.778 277.928C195.91 277.928 196.067 277.932 196.246 277.942C196.431 277.951 196.576 277.963 196.68 277.977V280.009C196.594 279.985 196.443 279.959 196.225 279.93C196.007 279.897 195.79 279.881 195.572 279.881C195.07 279.881 194.622 279.987 194.229 280.2C193.841 280.409 193.533 280.7 193.306 281.074C193.079 281.443 192.965 281.865 192.965 282.338V289H190.842ZM200.641 282.523V289H198.517V278.091H200.556V279.866H200.691C200.942 279.289 201.335 278.825 201.87 278.474C202.409 278.124 203.089 277.949 203.908 277.949C204.651 277.949 205.302 278.105 205.861 278.418C206.42 278.725 206.853 279.185 207.161 279.795C207.469 280.406 207.623 281.161 207.623 282.061V289H205.499V282.317C205.499 281.526 205.293 280.908 204.881 280.463C204.469 280.013 203.903 279.788 203.184 279.788C202.691 279.788 202.253 279.895 201.87 280.108C201.491 280.321 201.19 280.634 200.968 281.045C200.75 281.453 200.641 281.945 200.641 282.523ZM220.955 278.091V279.795H214.79V278.091H220.955ZM216.481 289V276.827C216.481 276.145 216.63 275.579 216.928 275.129C217.227 274.675 217.622 274.336 218.114 274.114C218.607 273.886 219.142 273.773 219.719 273.773C220.146 273.773 220.51 273.808 220.813 273.879C221.116 273.946 221.341 274.007 221.488 274.064L220.991 275.783C220.891 275.754 220.763 275.721 220.607 275.683C220.451 275.641 220.262 275.619 220.039 275.619C219.523 275.619 219.154 275.747 218.931 276.003C218.713 276.259 218.604 276.628 218.604 277.111V289H216.481ZM223.146 289V278.091H225.199V279.824H225.312C225.511 279.237 225.862 278.775 226.364 278.439C226.87 278.098 227.443 277.928 228.082 277.928C228.215 277.928 228.371 277.932 228.551 277.942C228.736 277.951 228.88 277.963 228.984 277.977V280.009C228.899 279.985 228.748 279.959 228.53 279.93C228.312 279.897 228.094 279.881 227.876 279.881C227.375 279.881 226.927 279.987 226.534 280.2C226.146 280.409 225.838 280.7 225.611 281.074C225.384 281.443 225.27 281.865 225.27 282.338V289H223.146ZM235.027 289.22C234.004 289.22 233.111 288.986 232.349 288.517C231.587 288.048 230.995 287.393 230.574 286.55C230.152 285.707 229.941 284.722 229.941 283.595C229.941 282.464 230.152 281.474 230.574 280.626C230.995 279.779 231.587 279.121 232.349 278.652C233.111 278.183 234.004 277.949 235.027 277.949C236.049 277.949 236.942 278.183 237.704 278.652C238.467 279.121 239.058 279.779 239.48 280.626C239.901 281.474 240.112 282.464 240.112 283.595C240.112 284.722 239.901 285.707 239.48 286.55C239.058 287.393 238.467 288.048 237.704 288.517C236.942 288.986 236.049 289.22 235.027 289.22ZM235.034 287.438C235.697 287.438 236.246 287.262 236.681 286.912C237.117 286.562 237.439 286.095 237.647 285.513C237.86 284.93 237.967 284.289 237.967 283.588C237.967 282.892 237.86 282.253 237.647 281.67C237.439 281.083 237.117 280.612 236.681 280.257C236.246 279.902 235.697 279.724 235.034 279.724C234.366 279.724 233.812 279.902 233.372 280.257C232.936 280.612 232.612 281.083 232.399 281.67C232.19 282.253 232.086 282.892 232.086 283.588C232.086 284.289 232.19 284.93 232.399 285.513C232.612 286.095 232.936 286.562 233.372 286.912C233.812 287.262 234.366 287.438 235.034 287.438ZM242.482 289V278.091H244.521V279.866H244.656C244.883 279.265 245.254 278.796 245.771 278.46C246.287 278.119 246.905 277.949 247.624 277.949C248.353 277.949 248.964 278.119 249.457 278.46C249.954 278.801 250.321 279.27 250.558 279.866H250.671C250.932 279.284 251.346 278.82 251.914 278.474C252.482 278.124 253.159 277.949 253.945 277.949C254.935 277.949 255.742 278.259 256.367 278.879C256.997 279.5 257.312 280.435 257.312 281.685V289H255.188V281.884C255.188 281.145 254.987 280.61 254.585 280.278C254.182 279.947 253.701 279.781 253.143 279.781C252.451 279.781 251.914 279.994 251.531 280.42C251.147 280.842 250.955 281.384 250.955 282.047V289H248.839V281.749C248.839 281.157 248.654 280.681 248.285 280.321C247.915 279.961 247.435 279.781 246.843 279.781C246.441 279.781 246.069 279.888 245.728 280.101C245.392 280.309 245.12 280.6 244.911 280.974C244.708 281.348 244.606 281.782 244.606 282.274V289H242.482ZM270.153 289.22C269.078 289.22 268.152 288.991 267.376 288.531C266.604 288.067 266.007 287.416 265.586 286.578C265.169 285.735 264.961 284.748 264.961 283.616C264.961 282.499 265.169 281.514 265.586 280.662C266.007 279.81 266.594 279.144 267.347 278.666C268.105 278.188 268.99 277.949 270.004 277.949C270.619 277.949 271.216 278.051 271.793 278.254C272.371 278.458 272.889 278.777 273.349 279.213C273.808 279.649 274.17 280.214 274.435 280.911C274.701 281.602 274.833 282.442 274.833 283.432V284.185H266.161V282.594H272.752C272.752 282.035 272.638 281.54 272.411 281.109C272.184 280.674 271.864 280.33 271.452 280.08C271.045 279.829 270.567 279.703 270.018 279.703C269.421 279.703 268.9 279.85 268.455 280.143C268.015 280.432 267.674 280.811 267.433 281.28C267.196 281.744 267.077 282.248 267.077 282.793V284.036C267.077 284.765 267.205 285.385 267.461 285.896C267.721 286.408 268.084 286.798 268.548 287.068C269.012 287.333 269.554 287.466 270.174 287.466C270.576 287.466 270.943 287.409 271.275 287.295C271.606 287.177 271.893 287.002 272.134 286.77C272.376 286.538 272.56 286.251 272.688 285.911L274.698 286.273C274.537 286.865 274.248 287.383 273.832 287.828C273.42 288.268 272.901 288.612 272.276 288.858C271.656 289.099 270.948 289.22 270.153 289.22ZM278.612 278.091L281.019 282.338L283.448 278.091H285.771L282.369 283.545L285.799 289H283.477L281.019 284.923L278.569 289H276.239L279.634 283.545L276.282 278.091H278.612ZM287.951 289V278.091H290.075V289H287.951ZM289.023 276.408C288.654 276.408 288.337 276.285 288.072 276.038C287.811 275.787 287.681 275.489 287.681 275.143C287.681 274.793 287.811 274.495 288.072 274.249C288.337 273.998 288.654 273.872 289.023 273.872C289.393 273.872 289.708 273.998 289.968 274.249C290.233 274.495 290.366 274.793 290.366 275.143C290.366 275.489 290.233 275.787 289.968 276.038C289.708 276.285 289.393 276.408 289.023 276.408ZM301.106 280.754L299.181 281.095C299.101 280.849 298.973 280.615 298.798 280.392C298.627 280.17 298.395 279.987 298.102 279.845C297.808 279.703 297.441 279.632 297.001 279.632C296.4 279.632 295.898 279.767 295.495 280.037C295.093 280.302 294.892 280.645 294.892 281.067C294.892 281.431 295.027 281.725 295.297 281.947C295.566 282.17 296.002 282.352 296.603 282.494L298.336 282.892C299.34 283.124 300.088 283.482 300.581 283.964C301.073 284.447 301.319 285.075 301.319 285.847C301.319 286.5 301.13 287.082 300.751 287.594C300.377 288.1 299.854 288.498 299.181 288.787C298.514 289.076 297.74 289.22 296.859 289.22C295.637 289.22 294.641 288.96 293.869 288.439C293.097 287.913 292.624 287.168 292.449 286.202L294.501 285.889C294.629 286.424 294.892 286.829 295.289 287.104C295.687 287.374 296.206 287.509 296.845 287.509C297.541 287.509 298.097 287.364 298.514 287.075C298.931 286.782 299.139 286.424 299.139 286.003C299.139 285.662 299.011 285.375 298.755 285.143C298.504 284.911 298.118 284.736 297.598 284.618L295.751 284.213C294.733 283.981 293.98 283.612 293.493 283.105C293.01 282.598 292.768 281.957 292.768 281.18C292.768 280.536 292.948 279.973 293.308 279.49C293.668 279.007 294.165 278.631 294.799 278.361C295.434 278.086 296.161 277.949 296.98 277.949C298.159 277.949 299.087 278.205 299.764 278.716C300.441 279.223 300.888 279.902 301.106 280.754ZM308.746 278.091V279.795H302.788V278.091H308.746ZM304.386 275.477H306.509V285.797C306.509 286.209 306.571 286.519 306.694 286.727C306.817 286.931 306.976 287.071 307.17 287.146C307.369 287.217 307.584 287.253 307.816 287.253C307.987 287.253 308.136 287.241 308.263 287.217C308.391 287.194 308.491 287.175 308.562 287.161L308.945 288.915C308.822 288.962 308.647 289.009 308.42 289.057C308.192 289.109 307.908 289.137 307.567 289.142C307.009 289.152 306.488 289.052 306.005 288.844C305.522 288.635 305.131 288.313 304.833 287.878C304.535 287.442 304.386 286.895 304.386 286.237V275.477ZM311.096 289V278.091H313.219V289H311.096ZM312.168 276.408C311.799 276.408 311.481 276.285 311.216 276.038C310.956 275.787 310.826 275.489 310.826 275.143C310.826 274.793 310.956 274.495 311.216 274.249C311.481 273.998 311.799 273.872 312.168 273.872C312.537 273.872 312.852 273.998 313.113 274.249C313.378 274.495 313.51 274.793 313.51 275.143C313.51 275.489 313.378 275.787 313.113 276.038C312.852 276.285 312.537 276.408 312.168 276.408ZM318.2 282.523V289H316.076V278.091H318.114V279.866H318.249C318.5 279.289 318.893 278.825 319.428 278.474C319.968 278.124 320.647 277.949 321.467 277.949C322.21 277.949 322.861 278.105 323.42 278.418C323.978 278.725 324.412 279.185 324.719 279.795C325.027 280.406 325.181 281.161 325.181 282.061V289H323.058V282.317C323.058 281.526 322.852 280.908 322.44 280.463C322.028 280.013 321.462 279.788 320.742 279.788C320.25 279.788 319.812 279.895 319.428 280.108C319.049 280.321 318.749 280.634 318.526 281.045C318.308 281.453 318.2 281.945 318.2 282.523ZM332.603 293.318C331.737 293.318 330.991 293.205 330.366 292.977C329.746 292.75 329.239 292.449 328.846 292.075C328.453 291.701 328.159 291.292 327.965 290.847L329.79 290.094C329.918 290.302 330.089 290.522 330.302 290.754C330.52 290.991 330.813 291.192 331.183 291.358C331.557 291.524 332.037 291.607 332.624 291.607C333.429 291.607 334.094 291.41 334.62 291.017C335.146 290.629 335.408 290.009 335.408 289.156V287.011H335.273C335.146 287.243 334.961 287.501 334.719 287.786C334.483 288.07 334.156 288.316 333.739 288.524C333.323 288.732 332.781 288.837 332.113 288.837C331.251 288.837 330.475 288.635 329.783 288.233C329.097 287.826 328.552 287.227 328.15 286.436C327.752 285.641 327.553 284.663 327.553 283.503C327.553 282.343 327.75 281.348 328.143 280.52C328.54 279.691 329.085 279.057 329.776 278.616C330.468 278.171 331.251 277.949 332.127 277.949C332.804 277.949 333.351 278.062 333.768 278.29C334.184 278.512 334.509 278.773 334.741 279.071C334.978 279.369 335.16 279.632 335.288 279.859H335.444V278.091H337.525V289.241C337.525 290.179 337.307 290.948 336.871 291.55C336.436 292.151 335.846 292.596 335.103 292.885C334.364 293.174 333.531 293.318 332.603 293.318ZM332.582 287.075C333.192 287.075 333.709 286.933 334.13 286.649C334.556 286.36 334.878 285.948 335.096 285.413C335.318 284.874 335.43 284.227 335.43 283.474C335.43 282.741 335.321 282.094 335.103 281.536C334.885 280.977 334.566 280.541 334.144 280.229C333.723 279.911 333.202 279.753 332.582 279.753C331.942 279.753 331.41 279.919 330.984 280.25C330.558 280.577 330.236 281.022 330.018 281.585C329.805 282.149 329.698 282.778 329.698 283.474C329.698 284.189 329.807 284.817 330.025 285.357C330.243 285.896 330.565 286.318 330.991 286.621C331.422 286.924 331.952 287.075 332.582 287.075ZM350.758 278.091V279.795H344.799V278.091H350.758ZM346.397 275.477H348.521V285.797C348.521 286.209 348.583 286.519 348.706 286.727C348.829 286.931 348.987 287.071 349.181 287.146C349.38 287.217 349.596 287.253 349.828 287.253C349.998 287.253 350.147 287.241 350.275 287.217C350.403 287.194 350.502 287.175 350.574 287.161L350.957 288.915C350.834 288.962 350.659 289.009 350.431 289.057C350.204 289.109 349.92 289.137 349.579 289.142C349.02 289.152 348.5 289.052 348.017 288.844C347.534 288.635 347.143 288.313 346.845 287.878C346.547 287.442 346.397 286.895 346.397 286.237V275.477ZM353.107 289V278.091H355.231V289H353.107ZM354.18 276.408C353.81 276.408 353.493 276.285 353.228 276.038C352.968 275.787 352.837 275.489 352.837 275.143C352.837 274.793 352.968 274.495 353.228 274.249C353.493 273.998 353.81 273.872 354.18 273.872C354.549 273.872 354.864 273.998 355.124 274.249C355.389 274.495 355.522 274.793 355.522 275.143C355.522 275.489 355.389 275.787 355.124 276.038C354.864 276.285 354.549 276.408 354.18 276.408ZM362.683 289.22C361.627 289.22 360.718 288.981 359.956 288.503C359.198 288.02 358.616 287.355 358.208 286.507C357.801 285.66 357.598 284.689 357.598 283.595C357.598 282.487 357.806 281.509 358.223 280.662C358.639 279.81 359.226 279.144 359.984 278.666C360.742 278.188 361.634 277.949 362.662 277.949C363.49 277.949 364.229 278.103 364.877 278.411C365.526 278.714 366.049 279.14 366.447 279.689C366.85 280.238 367.089 280.88 367.164 281.614H365.098C364.984 281.102 364.724 280.662 364.316 280.293C363.914 279.923 363.374 279.739 362.697 279.739C362.105 279.739 361.587 279.895 361.142 280.207C360.701 280.515 360.358 280.955 360.112 281.528C359.866 282.097 359.743 282.769 359.743 283.545C359.743 284.341 359.863 285.027 360.105 285.605C360.346 286.183 360.687 286.63 361.127 286.947C361.573 287.265 362.096 287.423 362.697 287.423C363.1 287.423 363.464 287.35 363.791 287.203C364.122 287.052 364.399 286.836 364.622 286.557C364.849 286.277 365.008 285.941 365.098 285.548H367.164C367.089 286.254 366.859 286.884 366.475 287.438C366.092 287.991 365.578 288.427 364.934 288.744C364.295 289.062 363.545 289.22 362.683 289.22ZM371.388 285.3L371.374 282.707H371.744L376.09 278.091H378.633L373.675 283.347H373.342L371.388 285.3ZM369.435 289V274.455H371.559V289H369.435ZM376.325 289L372.418 283.815L373.881 282.331L378.931 289H376.325ZM384.821 289.22C383.746 289.22 382.82 288.991 382.044 288.531C381.272 288.067 380.675 287.416 380.254 286.578C379.837 285.735 379.629 284.748 379.629 283.616C379.629 282.499 379.837 281.514 380.254 280.662C380.675 279.81 381.262 279.144 382.015 278.666C382.773 278.188 383.658 277.949 384.672 277.949C385.287 277.949 385.884 278.051 386.461 278.254C387.039 278.458 387.557 278.777 388.017 279.213C388.476 279.649 388.838 280.214 389.103 280.911C389.368 281.602 389.501 282.442 389.501 283.432V284.185H380.829V282.594H387.42C387.42 282.035 387.306 281.54 387.079 281.109C386.852 280.674 386.532 280.33 386.12 280.08C385.713 279.829 385.235 279.703 384.686 279.703C384.089 279.703 383.568 279.85 383.123 280.143C382.683 280.432 382.342 280.811 382.1 281.28C381.864 281.744 381.745 282.248 381.745 282.793V284.036C381.745 284.765 381.873 285.385 382.129 285.896C382.389 286.408 382.752 286.798 383.216 287.068C383.68 287.333 384.222 287.466 384.842 287.466C385.244 287.466 385.611 287.409 385.943 287.295C386.274 287.177 386.561 287.002 386.802 286.77C387.044 286.538 387.228 286.251 387.356 285.911L389.366 286.273C389.205 286.865 388.916 287.383 388.5 287.828C388.088 288.268 387.569 288.612 386.944 288.858C386.324 289.099 385.616 289.22 384.821 289.22ZM396.95 278.091V279.795H390.991V278.091H396.95ZM392.589 275.477H394.712V285.797C394.712 286.209 394.774 286.519 394.897 286.727C395.02 286.931 395.179 287.071 395.373 287.146C395.572 287.217 395.787 287.253 396.019 287.253C396.19 287.253 396.339 287.241 396.467 287.217C396.594 287.194 396.694 287.175 396.765 287.161L397.148 288.915C397.025 288.962 396.85 289.009 396.623 289.057C396.396 289.109 396.112 289.137 395.771 289.142C395.212 289.152 394.691 289.052 394.208 288.844C393.725 288.635 393.335 288.313 393.036 287.878C392.738 287.442 392.589 286.895 392.589 286.237V275.477ZM407.298 280.754L405.373 281.095C405.292 280.849 405.165 280.615 404.989 280.392C404.819 280.17 404.587 279.987 404.293 279.845C404 279.703 403.633 279.632 403.192 279.632C402.591 279.632 402.089 279.767 401.687 280.037C401.284 280.302 401.083 280.645 401.083 281.067C401.083 281.431 401.218 281.725 401.488 281.947C401.758 282.17 402.193 282.352 402.795 282.494L404.528 282.892C405.531 283.124 406.28 283.482 406.772 283.964C407.264 284.447 407.511 285.075 407.511 285.847C407.511 286.5 407.321 287.082 406.942 287.594C406.568 288.1 406.045 288.498 405.373 288.787C404.705 289.076 403.931 289.22 403.05 289.22C401.829 289.22 400.832 288.96 400.06 288.439C399.289 287.913 398.815 287.168 398.64 286.202L400.692 285.889C400.82 286.424 401.083 286.829 401.481 287.104C401.879 287.374 402.397 287.509 403.036 287.509C403.732 287.509 404.289 287.364 404.705 287.075C405.122 286.782 405.33 286.424 405.33 286.003C405.33 285.662 405.202 285.375 404.947 285.143C404.696 284.911 404.31 284.736 403.789 284.618L401.942 284.213C400.924 283.981 400.172 283.612 399.684 283.105C399.201 282.598 398.96 281.957 398.96 281.18C398.96 280.536 399.139 279.973 399.499 279.49C399.859 279.007 400.356 278.631 400.991 278.361C401.625 278.086 402.352 277.949 403.171 277.949C404.35 277.949 405.278 278.205 405.955 278.716C406.632 279.223 407.08 279.902 407.298 280.754ZM418.313 289.241C417.622 289.241 416.997 289.114 416.438 288.858C415.879 288.598 415.437 288.221 415.11 287.729C414.788 287.236 414.627 286.633 414.627 285.918C414.627 285.302 414.746 284.795 414.982 284.398C415.219 284 415.539 283.685 415.941 283.453C416.344 283.221 416.793 283.046 417.29 282.928C417.788 282.809 418.294 282.719 418.81 282.658C419.464 282.582 419.994 282.52 420.401 282.473C420.808 282.421 421.104 282.338 421.289 282.224C421.474 282.111 421.566 281.926 421.566 281.67V281.621C421.566 281 421.391 280.52 421.04 280.179C420.695 279.838 420.179 279.668 419.492 279.668C418.777 279.668 418.214 279.826 417.802 280.143C417.395 280.456 417.113 280.804 416.957 281.188L414.961 280.733C415.198 280.07 415.543 279.535 415.998 279.128C416.457 278.716 416.985 278.418 417.582 278.233C418.178 278.044 418.806 277.949 419.464 277.949C419.899 277.949 420.361 278.001 420.849 278.105C421.341 278.205 421.8 278.389 422.227 278.659C422.657 278.929 423.01 279.315 423.285 279.817C423.559 280.314 423.697 280.96 423.697 281.756V289H421.623V287.509H421.538C421.4 287.783 421.194 288.053 420.92 288.318C420.645 288.583 420.292 288.804 419.862 288.979C419.431 289.154 418.915 289.241 418.313 289.241ZM418.775 287.537C419.362 287.537 419.864 287.421 420.281 287.189C420.702 286.957 421.022 286.654 421.239 286.28C421.462 285.901 421.573 285.496 421.573 285.065V283.659C421.497 283.735 421.351 283.806 421.133 283.872C420.92 283.934 420.676 283.988 420.401 284.036C420.127 284.078 419.859 284.118 419.599 284.156C419.338 284.189 419.121 284.218 418.945 284.241C418.533 284.294 418.157 284.381 417.816 284.504C417.48 284.627 417.21 284.805 417.006 285.037C416.808 285.264 416.708 285.567 416.708 285.946C416.708 286.472 416.902 286.869 417.29 287.139C417.679 287.404 418.174 287.537 418.775 287.537ZM428.649 282.523V289H426.525V278.091H428.564V279.866H428.699C428.949 279.289 429.342 278.825 429.877 278.474C430.417 278.124 431.097 277.949 431.916 277.949C432.659 277.949 433.31 278.105 433.869 278.418C434.428 278.725 434.861 279.185 435.169 279.795C435.476 280.406 435.63 281.161 435.63 282.061V289H433.507V282.317C433.507 281.526 433.301 280.908 432.889 280.463C432.477 280.013 431.911 279.788 431.191 279.788C430.699 279.788 430.261 279.895 429.877 280.108C429.499 280.321 429.198 280.634 428.975 281.045C428.758 281.453 428.649 281.945 428.649 282.523ZM442.562 289.213C441.681 289.213 440.895 288.988 440.204 288.538C439.518 288.084 438.978 287.437 438.585 286.599C438.197 285.757 438.002 284.746 438.002 283.567C438.002 282.388 438.199 281.379 438.592 280.541C438.99 279.703 439.534 279.062 440.225 278.616C440.917 278.171 441.7 277.949 442.576 277.949C443.253 277.949 443.798 278.062 444.21 278.29C444.627 278.512 444.949 278.773 445.176 279.071C445.408 279.369 445.588 279.632 445.716 279.859H445.843V274.455H447.967V289H445.893V287.303H445.716C445.588 287.535 445.403 287.8 445.162 288.098C444.925 288.396 444.598 288.657 444.181 288.879C443.765 289.102 443.225 289.213 442.562 289.213ZM443.031 287.402C443.642 287.402 444.158 287.241 444.579 286.919C445.005 286.592 445.327 286.14 445.545 285.562C445.768 284.985 445.879 284.312 445.879 283.545C445.879 282.788 445.77 282.125 445.552 281.557C445.334 280.989 445.015 280.546 444.593 280.229C444.172 279.911 443.651 279.753 443.031 279.753C442.392 279.753 441.859 279.919 441.433 280.25C441.007 280.581 440.685 281.034 440.467 281.607C440.254 282.179 440.147 282.826 440.147 283.545C440.147 284.275 440.256 284.93 440.474 285.513C440.692 286.095 441.014 286.557 441.44 286.898C441.871 287.234 442.401 287.402 443.031 287.402ZM460.886 289.22C459.83 289.22 458.921 288.981 458.159 288.503C457.401 288.02 456.819 287.355 456.412 286.507C456.004 285.66 455.801 284.689 455.801 283.595C455.801 282.487 456.009 281.509 456.426 280.662C456.842 279.81 457.43 279.144 458.187 278.666C458.945 278.188 459.837 277.949 460.865 277.949C461.693 277.949 462.432 278.103 463.081 278.411C463.729 278.714 464.252 279.14 464.65 279.689C465.053 280.238 465.292 280.88 465.368 281.614H463.301C463.187 281.102 462.927 280.662 462.52 280.293C462.117 279.923 461.577 279.739 460.9 279.739C460.308 279.739 459.79 279.895 459.345 280.207C458.904 280.515 458.561 280.955 458.315 281.528C458.069 282.097 457.946 282.769 457.946 283.545C457.946 284.341 458.066 285.027 458.308 285.605C458.549 286.183 458.89 286.63 459.331 286.947C459.776 287.265 460.299 287.423 460.9 287.423C461.303 287.423 461.667 287.35 461.994 287.203C462.325 287.052 462.602 286.836 462.825 286.557C463.052 286.277 463.211 285.941 463.301 285.548H465.368C465.292 286.254 465.062 286.884 464.679 287.438C464.295 287.991 463.781 288.427 463.137 288.744C462.498 289.062 461.748 289.22 460.886 289.22ZM469.762 282.523V289H467.638V274.455H469.734V279.866H469.869C470.124 279.279 470.515 278.813 471.04 278.467C471.566 278.122 472.253 277.949 473.1 277.949C473.848 277.949 474.502 278.103 475.06 278.411C475.624 278.718 476.059 279.178 476.367 279.788C476.68 280.394 476.836 281.152 476.836 282.061V289H474.712V282.317C474.712 281.517 474.506 280.896 474.094 280.456C473.683 280.011 473.11 279.788 472.376 279.788C471.874 279.788 471.424 279.895 471.026 280.108C470.633 280.321 470.323 280.634 470.096 281.045C469.873 281.453 469.762 281.945 469.762 282.523ZM482.844 289.241C482.153 289.241 481.528 289.114 480.969 288.858C480.411 288.598 479.968 288.221 479.641 287.729C479.319 287.236 479.158 286.633 479.158 285.918C479.158 285.302 479.277 284.795 479.513 284.398C479.75 284 480.07 283.685 480.472 283.453C480.875 283.221 481.325 283.046 481.822 282.928C482.319 282.809 482.826 282.719 483.342 282.658C483.995 282.582 484.525 282.52 484.933 282.473C485.34 282.421 485.636 282.338 485.82 282.224C486.005 282.111 486.097 281.926 486.097 281.67V281.621C486.097 281 485.922 280.52 485.572 280.179C485.226 279.838 484.71 279.668 484.023 279.668C483.308 279.668 482.745 279.826 482.333 280.143C481.926 280.456 481.644 280.804 481.488 281.188L479.492 280.733C479.729 280.07 480.075 279.535 480.529 279.128C480.988 278.716 481.516 278.418 482.113 278.233C482.71 278.044 483.337 277.949 483.995 277.949C484.431 277.949 484.892 278.001 485.38 278.105C485.872 278.205 486.332 278.389 486.758 278.659C487.189 278.929 487.541 279.315 487.816 279.817C488.091 280.314 488.228 280.96 488.228 281.756V289H486.154V287.509H486.069C485.932 287.783 485.726 288.053 485.451 288.318C485.176 288.583 484.824 288.804 484.393 288.979C483.962 289.154 483.446 289.241 482.844 289.241ZM483.306 287.537C483.893 287.537 484.395 287.421 484.812 287.189C485.233 286.957 485.553 286.654 485.771 286.28C485.993 285.901 486.104 285.496 486.104 285.065V283.659C486.029 283.735 485.882 283.806 485.664 283.872C485.451 283.934 485.207 283.988 484.933 284.036C484.658 284.078 484.39 284.118 484.13 284.156C483.87 284.189 483.652 284.218 483.477 284.241C483.065 284.294 482.688 284.381 482.347 284.504C482.011 284.627 481.741 284.805 481.538 285.037C481.339 285.264 481.239 285.567 481.239 285.946C481.239 286.472 481.433 286.869 481.822 287.139C482.21 287.404 482.705 287.537 483.306 287.537ZM496.149 278.091V279.795H490.19V278.091H496.149ZM491.788 275.477H493.912V285.797C493.912 286.209 493.973 286.519 494.096 286.727C494.219 286.931 494.378 287.071 494.572 287.146C494.771 287.217 494.986 287.253 495.218 287.253C495.389 287.253 495.538 287.241 495.666 287.217C495.794 287.194 495.893 287.175 495.964 287.161L496.348 288.915C496.225 288.962 496.049 289.009 495.822 289.057C495.595 289.109 495.311 289.137 494.97 289.142C494.411 289.152 493.89 289.052 493.407 288.844C492.924 288.635 492.534 288.313 492.235 287.878C491.937 287.442 491.788 286.895 491.788 286.237V275.477ZM158.551 298.455V313H156.428V298.455H158.551ZM166.003 313.22C164.98 313.22 164.088 312.986 163.326 312.517C162.563 312.048 161.971 311.393 161.55 310.55C161.129 309.707 160.918 308.722 160.918 307.595C160.918 306.464 161.129 305.474 161.55 304.626C161.971 303.779 162.563 303.121 163.326 302.652C164.088 302.183 164.98 301.949 166.003 301.949C167.026 301.949 167.918 302.183 168.681 302.652C169.443 303.121 170.035 303.779 170.456 304.626C170.878 305.474 171.088 306.464 171.088 307.595C171.088 308.722 170.878 309.707 170.456 310.55C170.035 311.393 169.443 312.048 168.681 312.517C167.918 312.986 167.026 313.22 166.003 313.22ZM166.01 311.438C166.673 311.438 167.222 311.262 167.658 310.912C168.094 310.562 168.416 310.095 168.624 309.513C168.837 308.93 168.944 308.289 168.944 307.588C168.944 306.892 168.837 306.253 168.624 305.67C168.416 305.083 168.094 304.612 167.658 304.257C167.222 303.902 166.673 303.724 166.01 303.724C165.343 303.724 164.789 303.902 164.348 304.257C163.913 304.612 163.588 305.083 163.375 305.67C163.167 306.253 163.063 306.892 163.063 307.588C163.063 308.289 163.167 308.93 163.375 309.513C163.588 310.095 163.913 310.562 164.348 310.912C164.789 311.262 165.343 311.438 166.01 311.438ZM178.033 317.318C177.166 317.318 176.42 317.205 175.795 316.977C175.175 316.75 174.669 316.449 174.276 316.075C173.883 315.701 173.589 315.292 173.395 314.847L175.22 314.094C175.348 314.302 175.518 314.522 175.732 314.754C175.949 314.991 176.243 315.192 176.612 315.358C176.986 315.524 177.467 315.607 178.054 315.607C178.859 315.607 179.524 315.41 180.05 315.017C180.575 314.629 180.838 314.009 180.838 313.156V311.011H180.703C180.575 311.243 180.391 311.501 180.149 311.786C179.912 312.07 179.586 312.316 179.169 312.524C178.752 312.732 178.21 312.837 177.543 312.837C176.681 312.837 175.904 312.635 175.213 312.233C174.527 311.826 173.982 311.227 173.58 310.436C173.182 309.641 172.983 308.663 172.983 307.503C172.983 306.343 173.179 305.348 173.572 304.52C173.97 303.691 174.515 303.057 175.206 302.616C175.897 302.171 176.681 301.949 177.557 301.949C178.234 301.949 178.781 302.062 179.197 302.29C179.614 302.512 179.938 302.773 180.17 303.071C180.407 303.369 180.589 303.632 180.717 303.859H180.874V302.091H182.955V313.241C182.955 314.179 182.737 314.948 182.301 315.55C181.866 316.151 181.276 316.596 180.533 316.885C179.794 317.174 178.961 317.318 178.033 317.318ZM178.011 311.075C178.622 311.075 179.138 310.933 179.56 310.649C179.986 310.36 180.308 309.948 180.526 309.413C180.748 308.874 180.859 308.227 180.859 307.474C180.859 306.741 180.75 306.094 180.533 305.536C180.315 304.977 179.995 304.541 179.574 304.229C179.152 303.911 178.632 303.753 178.011 303.753C177.372 303.753 176.839 303.919 176.413 304.25C175.987 304.577 175.665 305.022 175.447 305.585C175.234 306.149 175.128 306.778 175.128 307.474C175.128 308.189 175.237 308.817 175.455 309.357C175.672 309.896 175.994 310.318 176.42 310.621C176.851 310.924 177.382 311.075 178.011 311.075ZM193.977 304.754L192.053 305.095C191.972 304.849 191.844 304.615 191.669 304.392C191.499 304.17 191.267 303.987 190.973 303.845C190.679 303.703 190.313 303.632 189.872 303.632C189.271 303.632 188.769 303.767 188.366 304.037C187.964 304.302 187.763 304.645 187.763 305.067C187.763 305.431 187.898 305.725 188.168 305.947C188.438 306.17 188.873 306.352 189.474 306.494L191.207 306.892C192.211 307.124 192.959 307.482 193.452 307.964C193.944 308.447 194.19 309.075 194.19 309.847C194.19 310.5 194.001 311.082 193.622 311.594C193.248 312.1 192.725 312.498 192.053 312.787C191.385 313.076 190.611 313.22 189.73 313.22C188.509 313.22 187.512 312.96 186.74 312.439C185.968 311.913 185.495 311.168 185.32 310.202L187.372 309.889C187.5 310.424 187.763 310.829 188.161 311.104C188.558 311.374 189.077 311.509 189.716 311.509C190.412 311.509 190.968 311.364 191.385 311.075C191.802 310.782 192.01 310.424 192.01 310.003C192.01 309.662 191.882 309.375 191.626 309.143C191.375 308.911 190.99 308.736 190.469 308.618L188.622 308.213C187.604 307.981 186.851 307.612 186.364 307.105C185.881 306.598 185.639 305.957 185.639 305.18C185.639 304.536 185.819 303.973 186.179 303.49C186.539 303.007 187.036 302.631 187.67 302.361C188.305 302.086 189.032 301.949 189.851 301.949C191.03 301.949 191.958 302.205 192.635 302.716C193.312 303.223 193.759 303.902 193.977 304.754Z" fill="white"/>
</g>
<defs>
<clipPath id="clip0_0_1">
<rect width="604" height="398" fill="white"/>
</clipPath>
</defs>
</svg>
