<svg width="512" height="512" viewBox="0 0 512 512" fill="none" xmlns="http://www.w3.org/2000/svg">
<rect width="512" height="512" fill="#1E1E1E"/>
<rect width="512" height="512" fill="white"/>
<path d="M343.1 382.6C341.1 382.6 339.1 382.5 337.1 382.3C335.1 382.1 333 381.8 330.8 381.4C317.2 378.8 304.9 374.3 293.9 367.9C282.9 361.5 273 354 264.2 345.4C255.6 337 247.7 328.1 240.5 318.7C233.5 309.3 227.1 300.3 221.3 291.7C215.5 282.9 210.1 275.2 205.1 268.6C204.7 267.6 204.2 267.3 203.6 267.7C203.2 268.1 203 268.3 203 268.3C198.6 276.7 194.5 284.6 190.7 292C187.1 299.2 184.4 305 182.6 309.4C181 313.8 180.2 316.9 180.2 318.7C180.2 321.5 181.3 322.9 183.5 322.9C186.3 322.9 189.3 321 192.5 317.2C194.7 314.6 196.7 312.2 198.5 310C200.5 307.6 202.2 306.6 203.6 307C203.8 307.2 203.9 307.5 203.9 307.9C203.9 308.9 203.2 310.3 201.8 312.1C200.4 313.7 199.6 314.6 199.4 314.8C198 316.8 196.1 319.5 193.7 322.9C191.5 326.3 189.1 329.3 186.5 331.9C184.1 334.7 181.5 336.1 178.7 336.1C178.3 336.1 177.1 335.9 175.1 335.5C173.3 335.1 171.5 334.6 169.7 334C168.1 333.4 167.2 332.7 167 331.9C166.6 328.1 167.5 322.8 169.7 316C172.1 309 175.3 301.3 179.3 292.9C183.3 284.5 187.4 276.3 191.6 268.3C188.4 267.5 186.1 266.8 184.7 266.2C182.7 264.8 181.7 262.9 181.7 260.5C181.7 258.5 182.5 256.7 184.1 255.1C185.7 253.5 188.1 252.7 191.3 252.7C192.3 252.7 193.5 252.9 194.9 253.3C196.3 253.7 197.4 254.4 198.2 255.4C201.6 249.4 204.6 243.9 207.2 238.9C210 233.9 212 230 213.2 227.2C214.4 225 215.2 223.2 215.6 221.8C216 220.2 216.2 219 216.2 218.2C216.2 217 216 216 215.6 215.2C216 212.8 217.4 209.6 219.8 205.6C222.4 201.6 225.6 197.6 229.4 193.6C233.2 189.6 237.3 186.3 241.7 183.7C246.1 180.9 250.2 179.5 254 179.5C255.2 179.5 257 179.9 259.4 180.7C262 181.3 264.4 182.3 266.6 183.7C269 185.1 270.5 187.1 271.1 189.7C271.3 190.3 271.4 190.9 271.4 191.5C271.4 192.1 271.2 192.4 270.8 192.4C270.4 192.4 269.8 192.3 269 192.1C268.4 191.7 267.9 191.5 267.5 191.5C261.9 191.5 255.6 194.9 248.6 201.7C241.8 208.3 234.8 216.8 227.6 227.2C220.6 237.6 214 248.4 207.8 259.6C208.8 259.8 209.9 260.1 211.1 260.5C212.5 260.7 214.1 260.8 215.9 260.8C216.7 260.8 217.4 260.8 218 260.8C218.8 260.8 219.6 260.7 220.4 260.5C233.2 259.1 246.2 256.6 259.4 253C272.8 249.4 285.3 244.7 296.9 238.9C308.5 233.1 318.1 226.3 325.7 218.5C332.7 211.1 336.2 203.5 336.2 195.7C336.2 189.9 334 184.5 329.6 179.5C325.2 174.5 318.3 170.7 308.9 168.1C303.3 166.5 296.9 165.3 289.7 164.5C282.7 163.7 275.1 163.3 266.9 163.3C254.1 163.3 240.9 164.4 227.3 166.6C213.9 168.8 201.3 172.2 189.5 176.8C177.7 181.2 167.8 186.8 159.8 193.6C151.8 200.4 147 208.5 145.4 217.9C144.8 222.7 145.7 226.5 148.1 229.3C150.5 232.1 153.4 234.3 156.8 235.9C160.4 237.3 163.2 238.6 165.2 239.8C166.6 241 167.3 242 167.3 242.8C167.3 244.2 166 244.7 163.4 244.3C160.6 243.7 157.1 242.3 152.9 240.1C148.9 237.9 145.3 234.9 142.1 231.1C139.1 227.1 137.6 222.5 137.6 217.3C137.6 216.5 137.6 215.7 137.6 214.9C137.8 214.1 138 213.3 138.2 212.5C138.2 212.3 138.1 211.7 137.9 210.7C137.9 209.5 137.9 208.5 137.9 207.7C139.1 201.5 142.1 195.7 146.9 190.3C151.9 184.7 157.5 179.8 163.7 175.6C170.1 171.2 176 167.7 181.4 165.1C190.8 160.5 202.1 156.9 215.3 154.3C228.5 151.5 242.3 150.1 256.7 150.1C265.5 150.1 274.2 150.7 282.8 151.9C291.6 153.1 300.1 155 308.3 157.6C319.7 161.4 328.5 167.3 334.7 175.3C341.1 183.1 344 191.3 343.4 199.9C342.8 208.1 339.9 215.5 334.7 222.1C329.7 228.7 323.2 234.5 315.2 239.5C307.4 244.3 298.7 248.5 289.1 252.1C279.7 255.5 270.2 258.3 260.6 260.5C252.8 262.1 244.6 263.4 236 264.4C227.4 265.4 219.3 266.1 211.7 266.5C220.3 277.1 228.8 287.8 237.2 298.6C245.8 309.2 254.9 319.2 264.5 328.6C274.3 338 285 346 296.6 352.6C308.2 359.4 321.3 364.2 335.9 367C338.9 367.6 342 367.9 345.2 367.9C350.4 367.9 355.5 367.1 360.5 365.5C365.7 363.9 370 361.4 373.4 358C376.8 354.6 378.5 350.1 378.5 344.5C378.5 343.5 378.4 342.5 378.2 341.5C378.2 340.5 378.1 339.5 377.9 338.5C377.9 338.1 377.8 337.8 377.6 337.6C377.6 337.4 377.6 337.2 377.6 337C377.6 335.2 378.3 334.3 379.7 334.3C381.7 334.3 383 335.8 383.6 338.8C384.2 341.8 384.5 344.6 384.5 347.2C384.5 350.2 384.2 353 383.6 355.6C383.2 358.2 382.6 360.6 381.8 362.8C380 368.4 375.4 373.1 368 376.9C360.8 380.7 352.5 382.6 343.1 382.6Z" fill="black"/>
</svg>
